<?xml version="1.0" encoding="UTF-8" standalone="no"?>
<!-- Created with Inkscape (http://www.inkscape.org/) -->

<svg
   xmlns:dc="http://purl.org/dc/elements/1.1/"
   xmlns:cc="http://creativecommons.org/ns#"
   xmlns:rdf="http://www.w3.org/1999/02/22-rdf-syntax-ns#"
   xmlns:svg="http://www.w3.org/2000/svg"
   xmlns="http://www.w3.org/2000/svg"
   xmlns:sodipodi="http://sodipodi.sourceforge.net/DTD/sodipodi-0.dtd"
   xmlns:inkscape="http://www.inkscape.org/namespaces/inkscape"
   width="210mm"
   height="297mm"
   viewBox="0 0 744.09448819 1052.3622047"
   id="svg4267"
   version="1.1"
   inkscape:version="0.91 r13725"
   sodipodi:docname="Avatar.svg">
  <defs
     id="defs4269">
    <inkscape:path-effect
       effect="powerstroke"
       id="path-effect4344"
       is_visible="true"
       offset_points="0.046714256,1.0812678"
       sort_points="true"
       interpolator_type="Linear"
       interpolator_beta="0.2"
       start_linecap_type="zerowidth"
       linejoin_type="round"
       miter_limit="4"
       end_linecap_type="zerowidth"
       cusp_linecap_type="round" />
    <inkscape:path-effect
       cusp_linecap_type="round"
       end_linecap_type="zerowidth"
       miter_limit="4"
       linejoin_type="round"
       start_linecap_type="zerowidth"
       interpolator_beta="0.2"
       interpolator_type="Linear"
       sort_points="true"
       offset_points="0.046714256,1.0812678"
       is_visible="true"
       id="path-effect4340"
       effect="powerstroke" />
    <inkscape:path-effect
       effect="powerstroke"
       id="path-effect4336"
       is_visible="true"
       offset_points="0.046714256,1.3487878"
       sort_points="true"
       interpolator_type="Linear"
       interpolator_beta="0.2"
       start_linecap_type="zerowidth"
       linejoin_type="round"
       miter_limit="4"
       end_linecap_type="zerowidth"
       cusp_linecap_type="round" />
    <inkscape:path-effect
       effect="skeletal"
       id="path-effect4332"
       is_visible="true"
       pattern="M 0,5 C 0,2.24 2.24,0 5,0 7.76,0 10,2.24 10,5 10,7.76 7.76,10 5,10 2.24,10 0,7.76 0,5 Z"
       copytype="single_stretched"
       prop_scale="1"
       scale_y_rel="false"
       spacing="0"
       normal_offset="0"
       tang_offset="0"
       prop_units="false"
       vertical_pattern="false"
       fuse_tolerance="0" />
    <inkscape:path-effect
       effect="skeletal"
       id="path-effect4328"
       is_visible="true"
       pattern="M 0,5 C 0,2.24 2.24,0 5,0 7.76,0 10,2.24 10,5 10,7.76 7.76,10 5,10 2.24,10 0,7.76 0,5 Z"
       copytype="single_stretched"
       prop_scale="1"
       scale_y_rel="false"
       spacing="0"
       normal_offset="0"
       tang_offset="0"
       prop_units="false"
       vertical_pattern="false"
       fuse_tolerance="0" />
  </defs>
  <sodipodi:namedview
     id="base"
     pagecolor="#ffffff"
     bordercolor="#666666"
     borderopacity="1.0"
     inkscape:pageopacity="0.0"
     inkscape:pageshadow="2"
     inkscape:zoom="5.6"
     inkscape:cx="543.32617"
     inkscape:cy="802.6025"
     inkscape:document-units="px"
     inkscape:current-layer="layer1"
     showgrid="false"
     inkscape:window-width="944"
     inkscape:window-height="1002"
     inkscape:window-x="960"
     inkscape:window-y="0"
     inkscape:window-maximized="0" />
  <metadata
     id="metadata4272">
    <rdf:RDF>
      <cc:Work
         rdf:about="">
        <dc:format>image/svg+xml</dc:format>
        <dc:type
           rdf:resource="http://purl.org/dc/dcmitype/StillImage" />
        <dc:title />
      </cc:Work>
    </rdf:RDF>
  </metadata>
  <g
     inkscape:label="Layer 1"
     inkscape:groupmode="layer"
     id="layer1">
    <ellipse
       style="fill:#e9afaf"
       id="path3351"
       cx="538.92859"
       cy="120.75505"
       rx="27.5"
       ry="27.321428" />
    <ellipse
       ry="9.1964283"
       rx="9.2857141"
       cy="117.63006"
       cx="506.60715"
       id="ellipse3355"
       style="fill:#de8787" />
    <ellipse
       style="fill:#de8787"
       id="ellipse3359"
       cx="525"
       cy="91.915764"
       rx="9.2857141"
       ry="9.1964283" />
    <ellipse
       style="fill:#de8787"
       id="ellipse3363"
       cx="563.74994"
       cy="101.02293"
       rx="9.2857141"
       ry="9.1964283" />
    <ellipse
       style="fill:#de8787"
       id="ellipse3367"
       cx="564.10712"
       cy="138.70148"
       rx="9.2857141"
       ry="9.1964283" />
    <ellipse
       ry="9.1964283"
       rx="9.2857141"
       cy="101.02293"
       cx="563.74994"
       id="ellipse3375"
       style="fill:#de8787" />
    <ellipse
       style="fill:#de8787"
       id="ellipse3377"
       cx="563.74994"
       cy="101.02293"
       rx="9.2857141"
       ry="9.1964283" />
    <ellipse
       ry="9.1964283"
       rx="9.2857141"
       cy="101.02293"
       cx="563.74994"
       id="ellipse3379"
       style="fill:#de8787" />
    <ellipse
       style="fill:#c83737"
       id="ellipse3381"
       cx="513.74994"
       cy="106.55865"
       rx="10.357142"
       ry="9.7321424" />
    <ellipse
       ry="9.7321424"
       rx="10.357142"
       cy="89.415787"
       cx="538.57141"
       id="ellipse3383"
       style="fill:#c83737" />
    <ellipse
       style="fill:#c83737"
       id="ellipse3385"
       cx="571.42853"
       cy="111.91579"
       rx="10.357142"
       ry="9.7321424" />
    <ellipse
       ry="9.7321424"
       rx="10.357142"
       cy="151.20151"
       cx="552.32141"
       id="ellipse3387"
       style="fill:#c83737" />
    <ellipse
       ry="9.7321424"
       rx="10.357142"
       cy="142.80865"
       cx="513.39282"
       id="ellipse3389"
       style="fill:#c83737" />
    <ellipse
       style="fill:#de8787"
       id="ellipse3371"
       cx="525.53571"
       cy="148.34435"
       rx="9.2857141"
       ry="9.1964283" />
    <ellipse
       ry="9.1964283"
       rx="9.2857141"
       cy="153.70149"
       cx="540.35712"
       id="ellipse3369"
       style="fill:#e9afaf" />
    <ellipse
       ry="9.1964283"
       rx="9.2857141"
       cy="127.09434"
       cx="569.82141"
       id="ellipse3365"
       style="fill:#e9afaf" />
    <ellipse
       ry="9.1964283"
       rx="9.2857141"
       cy="90.130058"
       cx="554.28564"
       id="ellipse3361"
       style="fill:#e9afaf" />
    <ellipse
       style="fill:#e9afaf"
       id="path3353"
       cx="516.25"
       cy="95.130058"
       rx="9.2857141"
       ry="9.1964283" />
    <ellipse
       ry="9.1964283"
       rx="9.2857141"
       cy="130.4872"
       cx="507.32141"
       id="ellipse3373"
       style="fill:#e9afaf" />
    <ellipse
       style="fill:#782121"
       id="path3397"
       cx="539.01782"
       cy="123.52292"
       rx="8.8392859"
       ry="8.3035717" />
    <path
       style="opacity:0.75199998;fill:#ffccaa"
       d="m 566.60713,231.46935 c 0,4.04351 -1.13621,6.98793 -3.07527,9.58846 -5.38973,7.8024 -12.63391,14.99586 -20.04972,16.84011 -8.72274,2.06442 -20.51048,-13.82234 -23.26527,-18.38798 -1.79271,-3.07962 -0.0383,-3.99708 -0.0383,-8.04059 0,-16.17406 8.86882,-29.28572 22.23214,-29.28572 13.36332,1e-5 24.19642,13.11167 24.19642,29.28572 z"
       id="path4208"
       inkscape:connector-curvature="0"
       sodipodi:nodetypes="scccsss" />
    <path
       style="opacity:0.75199998;fill:#ffd42a"
       id="path4216"
       d="m 529.60251,205.42738 c -1.57802,0.69259 -3.13932,1.42653 -4.66984,2.21873 -1.86179,1.04891 0.59746,-0.36353 0.9046,-0.5304 0.16954,-0.0921 -0.32823,0.20317 -0.4876,0.31195 -0.33993,0.23201 -0.59737,0.45903 -0.83203,0.79316 -0.025,0.0914 -0.0682,0.17976 -0.075,0.27431 -0.0299,0.41197 0.13785,0.82885 0.26454,1.20937 0.19097,0.57358 0.13455,0.40161 0.31021,0.98197 0.27833,0.96746 0.41391,1.9434 0.32416,2.94717 -0.20857,0.95117 -0.65113,1.8277 -1.06846,2.70082 -0.25172,0.52133 -0.54601,1.01565 -0.9401,1.43983 -0.80586,0.71194 -1.7343,1.26495 -2.61363,1.87904 -0.53815,0.42736 -1.15908,0.76211 -1.61208,1.28673 -0.20189,0.28042 -0.28091,0.60573 -0.20656,0.94216 0.1137,0.37376 0.34408,0.69199 0.49195,1.05242 0.15385,0.42207 0.23525,0.85568 0.3135,1.2961 0.12962,0.68837 0.32108,1.36093 0.44308,2.05145 0.11826,0.73852 0.13236,1.48691 0.0133,2.2248 -0.29622,1.07608 -1.06487,1.88631 -1.81083,2.67636 -0.67282,0.71054 -1.41376,1.35093 -2.14152,2.00351 -0.66494,0.57499 -0.88485,1.36655 -1.02409,2.20015 -0.0872,0.7559 -0.12778,1.522 -0.0808,2.28213 0.12573,0.81451 0.53399,1.53005 0.92351,2.24101 0.29845,0.51534 0.6255,1.01817 0.98056,1.49648 0.19697,0.27563 0.0974,0.14749 0.29637,0.38632 0,0 -2.26684,1.35588 -2.26684,1.35588 l 0,0 c -0.20016,-0.25653 -0.10157,-0.12289 -0.29484,-0.40161 -0.35528,-0.49321 -0.69949,-0.99825 -0.98829,-1.53367 -0.39621,-0.74849 -0.79927,-1.50055 -0.98357,-2.33585 -0.0564,-0.77974 0.004,-1.5661 0.0732,-2.34326 0.12501,-0.86146 0.29657,-1.71976 0.93853,-2.35858 0.73807,-0.65653 1.50005,-1.28897 2.18726,-2.00002 0.72632,-0.7521 1.48982,-1.51117 1.83633,-2.5235 0.1532,-0.7065 0.12856,-1.42719 0.0249,-2.14087 -0.10923,-0.69114 -0.30013,-1.35952 -0.45189,-2.04068 -0.0837,-0.42064 -0.1556,-0.83954 -0.29964,-1.24544 -0.14469,-0.37391 -0.38862,-0.69593 -0.5088,-1.07968 -0.11865,-0.3974 -0.082,-0.7874 0.10844,-1.1604 0.40328,-0.60853 1.06698,-0.9359 1.62746,-1.3811 0.86346,-0.61541 1.77573,-1.16245 2.60415,-1.82601 0.16114,-0.15131 0.28185,-0.24681 0.40815,-0.42084 0.21398,-0.29485 0.37492,-0.63336 0.56797,-0.94084 0.42246,-0.853 0.87668,-1.70196 1.12321,-2.62682 0.0195,-0.15439 0.0498,-0.30779 0.0585,-0.46315 0.0451,-0.80456 -0.14243,-1.61965 -0.33022,-2.39435 -0.16274,-0.54325 -0.12279,-0.43332 -0.3112,-0.96844 -0.14754,-0.41904 -0.3238,-0.86587 -0.34639,-1.31668 -0.006,-0.12129 0.0238,-0.24171 0.0358,-0.36257 0.0546,-0.10556 0.0947,-0.21992 0.16369,-0.31667 0.27864,-0.39072 0.75693,-0.69364 1.16033,-0.93155 2.27628,-1.34252 2.02314,-1.19771 3.46864,-1.97526 1.56823,-0.79229 3.15955,-1.5398 4.75996,-2.26464 0,0 -2.06806,1.63103 -2.06806,1.63103 z"
       inkscape:connector-curvature="0" />
    <path
       style="opacity:0.75199998;fill:#ffd42a"
       id="path4218"
       d="m 542.32702,201.4576 c -1.82258,1.40058 -3.85021,2.5373 -5.90617,3.55635 -1.10628,0.49835 -2.16525,1.1076 -3.30471,1.52966 -0.53921,0.1627 -0.86802,0.25496 -1.40419,0.0556 -0.6905,-0.36982 -1.44262,-0.56175 -2.20976,-0.68806 -1.07977,-0.13498 -2.16981,0.0899 -3.17099,0.49985 -0.28055,0.11488 -0.54742,0.26068 -0.82113,0.39102 -0.26826,0.14813 -1.07483,0.58925 -0.80478,0.44439 0.47614,-0.25541 0.91284,-0.59837 1.4231,-0.77607 0.26468,-0.0922 -0.45167,0.33259 -0.6665,0.51258 -0.61554,0.51573 -1.09295,1.09944 -1.56654,1.7421 -0.77525,1.0537 -1.26597,2.25506 -1.73273,3.46474 -0.2378,0.55336 -0.33786,1.14992 -0.51712,1.72116 -0.0621,0.19795 -0.27777,0.76155 -0.3286,0.89704 -0.8818,2.31389 -1.3733,4.748 -1.84749,7.17083 -0.1027,0.84019 -0.51787,2.13057 -0.12452,2.95532 0.0689,0.14445 0.1744,0.2684 0.2616,0.4026 0.73805,0.96887 1.7914,1.61989 2.77091,2.31731 0.64832,0.43558 0.93511,0.90289 1.08412,1.65303 0.0743,0.68493 -0.18988,1.30276 -0.69155,1.7735 -0.15113,0.14181 -0.32514,0.25706 -0.48771,0.38559 -0.18912,0.12314 -0.37215,0.25616 -0.56735,0.36942 -0.92783,0.53836 -1.85953,1.07041 -2.80081,1.58491 -0.20435,0.11169 -0.42223,0.19665 -0.63437,0.29274 -0.54958,0.24891 -1.10769,0.476 -1.66217,0.71352 -0.18331,0.0742 -0.56769,0.22475 -0.75527,0.31864 -0.0916,0.0458 -0.35555,0.20332 -0.26622,0.15327 3.27295,-1.83374 2.29777,-1.6402 1.7703,-0.78409 -0.26437,0.598 -0.27692,1.26407 -0.3006,1.90706 -0.008,0.69388 -0.0379,1.38973 0.0118,2.08253 0.0345,0.46321 0.1923,0.90194 0.27098,1.35814 0.29721,1.37296 0.79065,2.68344 1.34176,3.97142 0.42995,0.86848 0.22169,0.50107 0.59663,1.11772 0,0 -2.26216,1.2929 -2.26216,1.2929 l 0,0 c -0.29728,-0.67465 -0.12182,-0.28146 -0.53081,-1.17757 -0.55274,-1.2995 -1.08618,-2.60844 -1.4817,-3.96605 -0.0716,-0.46631 -0.23075,-0.91326 -0.26955,-1.38456 -0.0558,-0.70152 -0.01,-1.40863 -0.0173,-2.11176 0.0197,-0.67529 0.0382,-1.35807 0.23246,-2.01066 0.0178,-0.0366 0.20748,-0.43891 0.24037,-0.46078 1.16225,-0.77276 2.19632,-1.44123 3.4559,-1.91419 0.54724,-0.22852 1.09545,-0.453 1.6331,-0.70373 0.21127,-0.0985 0.82355,-0.4334 0.63016,-0.30324 -0.33144,0.22308 -2.64588,1.58229 -1.03384,0.6064 0.70707,-0.48676 1.28989,-0.94535 1.25206,-1.87347 -0.11026,-0.69404 -0.36577,-1.08626 -0.94915,-1.50058 -0.98802,-0.73571 -2.05526,-1.41384 -2.82011,-2.3966 -0.25166,-0.37839 -0.37389,-0.47445 -0.45801,-0.91993 -0.15889,-0.84151 0.18318,-1.84025 0.30913,-2.65838 0.51831,-2.4033 1.02528,-4.81585 1.75681,-7.16513 0.2822,-0.875 0.57465,-1.74437 0.83967,-2.62525 0.47989,-1.22742 0.96353,-2.45663 1.73699,-3.53809 0.36886,-0.52429 0.52061,-0.7782 0.96383,-1.25083 1.37382,-1.46497 3.23024,-2.32295 4.97679,-3.26216 0.28232,-0.12499 0.55844,-0.26506 0.84696,-0.37498 1.05366,-0.40139 2.18537,-0.60308 3.30744,-0.44155 0.77399,0.15126 1.51712,0.38392 2.24194,0.69662 0.44505,0.0813 0.87117,-0.0232 1.29164,-0.18174 1.0989,-0.43412 2.14282,-0.99567 3.21422,-1.4913 0.53039,-0.27161 2.38967,-1.24323 -0.51551,0.36151 -0.2395,0.1323 0.46819,-0.28334 0.69951,-0.42947 0.36652,-0.23153 0.69235,-0.44503 1.0357,-0.70333 0.0894,-0.0673 0.17365,-0.14121 0.26047,-0.21182 0,0 2.45308,-0.9941 2.45308,-0.9941 z"
       inkscape:connector-curvature="0" />
    <path
       style="opacity:0.75199998;fill:#ffd42a"
       id="path4220"
       d="m 540.16523,204.51327 c -1.57672,0.43949 -3.07852,1.08941 -4.59069,1.70593 -0.41859,0.17983 -0.65101,0.27139 -1.04773,0.47099 -0.13076,0.0658 -0.51419,0.28005 -0.38653,0.20841 2.7969,-1.56967 2.17742,-1.36217 1.28616,-0.48952 -0.69333,0.71521 -1.36406,1.46271 -2.17715,2.04465 -1.44137,0.88695 -2.00636,1.77338 -3.29839,1.20945 -0.30704,-0.13401 -0.59396,-0.32261 -0.89374,-0.47265 -0.22416,-0.0694 -0.49539,-0.27258 -0.74763,-0.22317 -0.0785,0.0154 -0.28106,0.15257 -0.2103,0.11535 2.11965,-1.11491 2.48012,-1.64554 1.73672,-0.73102 -0.45506,0.70132 -0.73081,1.49314 -0.89912,2.30713 -0.10248,0.47818 -0.0575,0.9695 -0.12294,1.45048 -0.0952,0.46355 -0.19222,0.92329 -0.48999,1.30097 -0.86134,0.72234 -1.97115,1.81388 -3.11667,1.38607 -0.28683,-0.10712 -0.49466,-0.24047 -0.76191,-0.39211 -0.13133,-0.0836 -0.26475,-0.16403 -0.39398,-0.25085 -0.11166,-0.075 -0.21958,-0.15548 -0.32844,-0.2345 -0.0788,-0.0572 -0.14574,-0.13387 -0.23436,-0.17404 -0.0395,-0.0179 -0.16785,0.0299 -0.12985,0.009 2.33361,-1.28654 2.61908,-1.89453 2.13201,-0.99021 -0.12909,1.10251 -0.10191,2.2232 -0.0603,3.33112 -0.0143,0.89337 0.24199,1.8058 0.0537,2.69093 -0.12425,0.30059 -0.33911,0.51908 -0.45082,0.8354 -0.35689,1.01051 -0.48524,2.09532 -0.647,3.1481 -0.098,0.77657 -0.15764,1.55754 -0.18595,2.3396 -0.004,0.11336 -0.004,0.22684 -0.007,0.34023 -0.005,0.18388 0.009,0.19532 -0.0326,0.0796 -6.16362,3.06968 0.0301,-0.10375 0.0742,-0.12103 0.0895,-0.0351 0.12556,0.14653 0.1772,0.22764 0.25597,0.40207 0.44445,0.85097 0.63396,1.28616 0.074,0.26155 0.65086,1.13478 0.55016,1.38098 -0.0627,0.1533 -0.17293,0.2994 -0.31528,0.38406 -0.92776,0.55174 -1.91056,1.00518 -2.86584,1.50777 -0.85182,0.26141 -1.73963,0.43204 -2.55586,0.80054 -0.12781,0.0577 -0.49452,0.26458 -0.37243,0.19561 0.65522,-0.37014 1.31465,-0.7328 1.97197,-1.0992 -0.73122,0.66886 -0.33963,1.42281 -0.0189,2.21422 0.34928,0.82509 0.83192,1.57894 1.29091,2.34415 0.23316,0.3887 0.51336,0.82285 0.65225,1.26434 0.0501,0.15932 0.0571,0.3291 0.0857,0.49365 -0.1502,0.20752 -0.26594,0.44499 -0.45059,0.62256 -0.30558,0.29387 -1.21034,0.81991 -1.57113,1.02975 -0.96539,0.5615 -1.94735,1.09483 -2.90241,1.67372 -0.51907,0.31462 1.03561,-0.64227 1.59385,-0.88057 0.17502,-0.0747 -0.28316,0.25433 -0.42474,0.38149 -0.0738,0.14222 -0.1762,0.27294 -0.22143,0.42666 -0.24328,0.8269 0.28841,1.92472 0.56365,2.69206 0.18025,0.53436 0.43614,1.06341 0.36551,1.64205 -0.0243,0.19882 -0.11352,0.4696 -0.17236,0.6649 -0.0729,0.22669 -0.13307,0.39445 0.13469,0.44417 0.24768,0.046 0.14517,0.0442 0.38622,-0.01 0.72143,-0.76634 -0.13831,0.17858 -1.94499,0.99719 -0.0895,0.0405 0.098,-0.1714 0.1311,-0.26389 0.0431,-0.12063 0.0642,-0.24804 0.0963,-0.37207 0,0 2.35371,-1.13871 2.35371,-1.13871 l 0,0 c -0.004,0.0224 -0.0944,0.67685 -0.16015,0.72678 -1.942,1.47383 -1.50538,1.33853 -2.60797,1.61538 -0.5316,-0.0505 -0.97138,-0.26968 -0.76777,-0.88017 0.10633,-0.3009 0.26097,-0.6205 0.25226,-0.9478 -0.0113,-0.42416 -0.2343,-0.82186 -0.33196,-1.2252 -0.29494,-0.84997 -0.82123,-1.9449 -0.65653,-2.86215 0.0329,-0.18343 0.12703,-0.35041 0.19054,-0.52562 1.19777,-1.22156 0.14168,-0.21813 3.19643,-2.0838 0.47153,-0.28798 -0.95631,0.55369 -1.43293,0.83317 -0.26859,0.1575 0.54269,-0.30563 0.80884,-0.4672 0.25498,-0.1548 0.50932,-0.31132 0.75418,-0.48167 0.17835,-0.12409 0.34274,-0.26714 0.51411,-0.4007 -0.0111,-0.14861 0.002,-0.30097 -0.0333,-0.44581 -0.11117,-0.45926 -0.36287,-0.84613 -0.59689,-1.24886 -0.454,-0.78131 -0.93577,-1.54774 -1.32869,-2.36322 -0.40597,-0.89472 -0.83649,-1.62354 -0.18675,-2.50004 0.83631,-0.49957 1.66532,-1.01156 2.50894,-1.49869 0.19482,-0.1125 0.67284,-0.27694 0.8627,-0.33856 0.67761,-0.21992 1.37277,-0.38072 2.04742,-0.61045 -0.52706,0.34544 -1.07782,0.65716 -1.58117,1.03632 -0.11107,0.0837 0.28686,-0.0507 0.39259,-0.141 0.15346,-0.1311 -0.41019,-1.13287 -0.4681,-1.31263 -0.16476,-0.37574 -0.2133,-0.51752 -0.42037,-0.86898 -0.0647,-0.10974 -0.13224,-0.2185 -0.21126,-0.3184 -0.0254,-0.0322 -0.13343,-0.0516 -0.0987,-0.0735 1.68312,-1.06163 4.43921,-2.36488 -0.20676,-0.0672 -0.0163,-0.0372 -0.0499,-0.0709 -0.0491,-0.11148 9.4e-4,-0.047 0.0455,-0.0841 0.0539,-0.13031 0.0216,-0.11798 0.0234,-0.23873 0.0353,-0.35807 0.0802,-0.80034 0.16728,-1.59995 0.26189,-2.39872 0.15265,-1.03429 0.17106,-1.21154 0.35269,-2.23514 0.10245,-0.57741 0.13307,-1.29031 0.59584,-1.71944 0.34139,-0.80076 0.007,-1.80251 0.0501,-2.64347 -0.0459,-1.11975 -0.0644,-2.24311 -0.0334,-3.36339 0.0728,-1.2019 -0.0581,-0.43651 2.43398,-1.65559 0.0577,-0.0282 0.11738,0.0537 0.17022,0.0901 0.3037,0.20958 0.56486,0.48572 0.9103,0.63584 0.31126,0.15518 0.63136,0.34821 0.99484,0.32394 0.0677,-0.005 0.25567,-0.0827 0.19806,-0.0468 -1.76576,1.09809 -2.8774,1.55561 -1.94493,1.16499 0.38827,-0.27528 0.46837,-0.7116 0.56292,-1.15554 0.12313,-0.47232 0.0208,-0.97948 0.13335,-1.45846 0.16793,-0.8452 0.45687,-1.65921 0.87036,-2.41711 0.74902,-1.15832 0.25951,-0.51643 2.74975,-1.91258 0.0817,-0.0458 0.18698,-0.0273 0.2803,-0.0194 0.27906,0.0238 0.53185,0.18692 0.78283,0.29197 0.28015,0.1471 0.56114,0.33436 0.86238,0.43596 0.97741,0.32964 2.15966,-0.8324 -1.30377,1.22155 0.85568,-0.51971 1.52831,-1.27428 2.20942,-1.99816 0.0459,-0.0488 0.51645,-0.55812 0.60179,-0.61243 1.30013,-0.82745 2.5384,-1.6172 3.96356,-2.16039 1.53206,-0.61807 3.06201,-1.24623 4.65008,-1.71015 0,0 -2.07214,1.58853 -2.07214,1.58853 z"
       inkscape:connector-curvature="0" />
    <path
       style="opacity:0.75199998;fill:#ffd42a"
       id="path4222"
       d="m 539.27493,203.89199 c -0.843,-0.40218 -1.79114,-0.45012 -2.70732,-0.52063 -0.75905,-0.004 -1.56339,-0.16016 -2.31338,0.0349 -0.57505,0.14955 -0.90719,0.38497 -1.43077,0.67727 0.3867,-0.16437 1.15681,-0.9133 1.16009,-0.49313 0.004,0.52581 -0.79183,0.69411 -1.15555,1.07385 -1.67289,1.74656 -2.68994,3.63879 -3.73749,5.78342 -0.88219,1.87804 -0.98379,2.76193 -3.61014,3.37528 -0.29705,0.0694 -0.44368,-0.42433 -0.61933,-0.67373 -0.44977,-0.63857 -0.89582,-1.67494 -1.21881,-2.36206 -0.48707,-0.97152 -0.83046,-2.01643 -1.38984,-2.95237 -0.0794,-0.13283 -0.16374,-0.26539 -0.27109,-0.37685 -0.0442,-0.0459 -0.22736,-0.0518 -0.17193,-0.0831 0.70053,-0.3956 1.44955,-0.69842 2.17432,-1.04763 -0.0646,0.12664 -0.14261,0.2473 -0.19381,0.37993 -0.11322,0.2933 -0.30773,1.04331 -0.38786,1.32977 -0.19243,0.68794 -0.3989,1.35872 -0.56293,2.05475 -0.7741,4.46537 -1.88703,8.8622 -2.96177,13.26231 -0.16033,0.51992 -0.26648,1.05975 -0.481,1.55975 -0.52867,1.23219 -2.13553,1.79665 -3.27961,2.03347 -0.28239,0.0585 -0.44346,-0.37325 -0.62885,-0.59414 -0.43981,-0.52406 -0.73833,-1.14433 -1.06229,-1.73917 0.8118,-0.26167 -1.09493,-1.02122 -0.69732,-1.32089 0.67438,-0.50827 1.47576,-1.04435 2.31983,-1.01816 0.37395,0.0116 0.14179,0.73518 0.23523,1.09745 0.28444,1.10273 0.64972,2.18786 0.99645,3.27148 0.38917,1.11176 0.77783,2.23179 1.30728,3.28702 0.16479,0.32845 0.27228,0.40096 0.35541,0.74693 4.8e-4,1.0158 -0.0508,2.03238 -0.0748,3.04849 -0.0313,0.8243 0.0206,1.65064 -0.0609,2.472 -0.39623,2.20863 -0.99179,4.37367 -1.68815,6.50469 -0.13977,0.3743 -0.46967,1.34078 -0.71601,1.72197 -0.57894,0.89586 -3.02257,1.24304 -3.1931,1.25019 -0.31897,0.0134 -0.41191,-0.48861 -0.59931,-0.74708 -0.21484,-0.29629 -0.4041,-0.61032 -0.60615,-0.91548 -0.49308,-0.79863 -0.96744,-1.61188 -1.37014,-2.46061 -0.20858,-0.4396 -0.3835,-0.77433 -0.36471,-1.2602 0.85566,-0.39735 1.63678,-1.03465 2.56698,-1.19207 0.28644,-0.0485 0.3834,0.43675 0.56728,0.66167 1.13078,1.38313 2.22708,2.79596 3.35127,4.18477 0.80575,0.99648 1.68822,1.93009 2.64077,2.78742 0.38951,0.35058 0.88501,0.77367 1.34656,1.05031 0.14074,0.0844 0.29715,0.13928 0.44572,0.20892 1.01969,-0.25781 0.33015,-0.0974 -1.93606,0.87317 0,0 2.34004,-1.15815 2.34004,-1.15815 l 0,0 c -2.3637,1.83167 -1.34262,1.97262 -2.57825,1.70725 -0.66002,-0.39642 -1.17344,-0.84558 -1.73493,-1.37884 -0.93415,-0.8872 -1.83054,-1.81744 -2.63055,-2.82885 -0.86501,-1.06166 -1.70622,-2.14679 -2.59373,-3.18979 -0.26831,-0.31532 -0.53623,-0.63172 -0.82382,-0.92956 -0.18026,-0.18669 -0.73197,-0.31327 -0.57768,-0.52193 0.48577,-0.65696 1.33705,-0.93944 2.00558,-1.40916 -0.0349,0.0494 -0.1023,0.0879 -0.1046,0.14833 -0.01,0.25235 0.22089,0.80572 0.29839,0.98721 0.36438,0.85337 0.8209,1.66556 1.31086,2.45208 0.20522,0.29258 0.39369,0.59767 0.61568,0.87775 0.18052,0.22775 0.72742,0.38683 0.5893,0.64253 -0.36182,0.66982 -1.1828,0.96093 -1.73724,1.48264 -0.12842,0.12085 0.3394,-0.13866 0.45262,-0.27385 0.25905,-0.30933 0.67028,-1.41693 0.79294,-1.71826 0.71887,-2.08126 1.29463,-4.20986 1.58966,-6.39619 0.0973,-0.81542 0.0399,-1.64221 0.0886,-2.46175 0.0272,-0.99106 0.0754,-1.98249 0.0535,-2.9741 -0.0333,-0.26768 -0.15392,-0.49068 -0.24877,-0.7452 -0.4167,-1.11819 -0.80526,-2.2471 -1.17654,-3.38108 -0.49247,-1.47823 -0.58982,-1.78853 -1.09266,-3.22962 -0.12407,-0.35557 -0.60222,-0.76091 -0.37909,-1.06429 1.9323,-2.62726 1.98296,-2.08245 2.51476,-0.95206 0.12703,0.27 0.25352,0.54026 0.38027,0.8104 0.3255,0.59003 0.58035,1.14403 1.04918,1.64055 0.15625,0.16548 0.67023,0.22253 0.54435,0.41213 -0.37678,0.56754 -1.03178,0.90868 -1.63339,1.22825 -0.7655,0.40662 3.70815,-3.10163 1.228,-2.29218 1.16677,-4.32615 2.25333,-8.68818 2.75404,-13.14992 0.0494,-0.27257 0.0823,-0.54868 0.14827,-0.81771 0.0495,-0.20186 0.13479,-0.39327 0.19753,-0.59142 0.25534,-0.80648 0.44514,-1.63035 0.65044,-2.45043 0.83268,-0.4595 1.629,-0.99215 2.49804,-1.3785 0.08,-0.0356 0.13614,0.11336 0.18622,0.18515 0.0936,0.13418 0.16908,0.28061 0.24118,0.42748 0.48106,0.97995 0.81757,2.0246 1.30536,3.00182 0.3768,0.76071 0.71747,1.56873 1.25982,2.23658 0.13898,0.17113 0.63996,0.24883 0.507,0.42467 -0.41908,0.55419 -1.05229,0.98389 -1.71929,1.1785 -0.30459,0.0889 0.33586,-0.53895 0.48575,-0.8186 0.20154,-0.376 0.37854,-0.76465 0.56781,-1.14697 0.77506,-1.55417 1.56612,-3.11012 2.59535,-4.51747 0.41287,-0.56454 1.60003,-1.97538 2.20992,-2.4228 0.9976,-0.73184 2.07805,-1.34345 3.11708,-2.01518 0.63847,-0.32356 0.84823,-0.48839 1.52897,-0.6303 0.76536,-0.15955 1.57145,-0.01 2.34101,0.006 0.96074,0.0837 1.94723,0.14735 2.82868,0.57634 0,0 -2.22253,1.44474 -2.22253,1.44474 z"
       inkscape:connector-curvature="0" />
    <path
       style="opacity:0.75199998;fill:#ffd42a"
       id="path4224"
       d="m 539.52979,200.97325 c 1.16221,1.36217 2.35789,2.75899 3.64315,4.00578 0.23299,0.22602 0.48469,0.4319 0.72703,0.64786 -0.5102,0.93064 1.49814,-0.0895 1.15348,0.0831 -0.5597,0.2804 -1.07995,0.72131 -1.70165,0.79459 -0.2632,0.031 0.31716,-0.42523 0.46029,-0.64828 0.26831,-0.41811 0.49902,-0.85921 0.7531,-1.28611 0.95512,-1.08875 0.47291,-0.6257 2.94138,-1.8785 0.28333,-0.14379 0.7788,0.0928 1.07345,0.0359 0.15126,-0.0292 0.28491,-0.1173 0.42736,-0.17595 0.20433,-0.12312 0.82584,-0.47712 0.613,-0.36937 -0.47838,0.24218 -0.91046,0.57979 -1.41057,0.77315 -0.2783,0.1076 0.48989,-0.34077 0.73443,-0.51173 0.22235,-0.15545 0.43303,-0.32888 0.66625,-0.46748 2.91154,-1.73034 1.84252,-2.05442 3.41491,-1.24251 0.80135,0.83194 1.18971,1.91675 1.67222,2.93953 0.0427,0.0906 0.48691,1.27336 0.90089,1.30674 0.17924,0.0145 0.29021,-0.21242 0.43531,-0.31863 -0.56232,0.24648 -1.07453,0.69601 -1.68696,0.73945 -0.27477,0.0195 0.33018,-0.44119 0.50323,-0.65551 0.16155,-0.20006 0.28561,-0.44564 0.50026,-0.58726 1.25862,-0.83036 2.1236,-2.15663 3.29898,-1.24381 0.20696,0.16073 0.35315,0.38725 0.52972,0.58087 0.7865,1.03389 1.11009,2.29044 1.5984,3.46749 0.0839,0.28472 0.39189,0.2612 0.56192,0.45143 0.47032,0.52622 0.76026,1.8497 0.95149,2.47925 0.50011,2.03444 0.21814,0.85103 0.6773,2.86101 0.13519,0.59178 0.36851,2.31501 1.03738,2.65284 0.15809,0.0798 0.35407,0.0106 0.5311,0.0159 0.6221,-0.16968 1.55529,-0.83017 2.21657,-0.48212 0.8602,0.45276 1.28228,2.06663 1.53481,2.88534 0.39181,2.02925 0.59723,4.10325 0.52528,6.17148 -0.0452,1.29955 -0.11921,1.62294 -0.28912,2.86487 -0.13664,0.71817 -0.17634,1.04042 -0.36664,1.69632 -0.005,0.017 -0.17608,0.56209 -0.24307,0.60182 -2.40907,1.4287 -1.91594,2.048 -2.53258,1.07557 -0.3218,-1.21481 0.77799,-1.21902 2.35186,-1.70707 0.13221,-0.041 0.0442,0.27351 0.0572,0.41133 0.017,0.18136 0.0218,0.36366 0.0326,0.54549 0.0753,1.3571 0.0835,2.71686 0.10516,4.07561 0.0228,0.38805 0.0178,0.79627 0.16693,1.16383 0.15889,0.39155 0.0887,-0.0542 0.20908,0.57333 0.0402,0.20933 0.0576,0.42239 0.0864,0.63358 0.1134,0.87678 0.0955,1.76383 0.16263,2.64343 0.0191,0.25077 0.10324,1.17993 0.25368,1.46757 0.0513,0.098 0.1798,0.12897 0.2697,0.19346 0.53546,-0.0211 1.08309,-0.70567 1.61952,-0.38212 0.0926,0.0558 0.15459,0.15121 0.23188,0.22681 0.41751,0.90209 0.39509,1.94026 0.40881,2.91606 0.0197,0.82276 -0.0129,1.64681 0.0238,2.4691 0,0 -2.34818,1.19384 -2.34818,1.19384 l 0,0 c 0.0495,-0.82699 0.0238,-1.65701 0.0241,-2.48495 -0.0245,-0.89813 0.0147,-1.86168 -0.34769,-2.7001 -0.051,-0.0357 -0.0932,-0.0897 -0.15295,-0.10719 -0.38587,-0.11257 -1.26279,0.62515 -1.68418,0.24233 -0.10303,-0.11575 -0.2458,-0.2058 -0.30907,-0.34725 -0.12948,-0.28948 -0.21674,-1.28165 -0.23565,-1.53014 -0.0658,-0.86428 -0.0587,-1.73582 -0.19624,-2.59444 -0.0346,-0.19484 -0.0597,-0.3916 -0.10369,-0.58453 -0.12652,-0.55497 -0.0578,-0.1284 -0.22204,-0.56775 -0.14931,-0.39937 -0.13419,-0.83575 -0.15051,-1.25372 -0.002,-1.35109 -0.0138,-2.70336 -0.11221,-4.05151 -0.0173,-0.17303 -0.0326,-0.34625 -0.0518,-0.51907 -0.0107,-0.096 -0.11662,-0.23169 -0.0377,-0.28747 0.72214,-0.51032 1.5362,-0.87621 2.3043,-1.31432 -0.0177,0.029 -0.0446,0.0541 -0.0532,0.087 -0.0118,0.0452 -0.008,0.19058 -0.007,0.24857 8.8e-4,1.3e-4 0.002,2.6e-4 0.003,4e-4 -0.73305,0.4333 -1.46609,0.86661 -2.19914,1.29991 -0.0613,0.0352 0.12645,-0.0737 0.16571,-0.13255 0.40921,-0.61338 0.45994,-1.43801 0.66712,-2.11608 0.0726,-0.44136 0.16497,-0.87992 0.21791,-1.32407 0.30196,-2.53327 0.10618,-5.11473 -0.41841,-7.60401 -0.22576,-0.69881 -0.62395,-2.25186 -1.43518,-2.57925 -0.62093,-0.25059 -1.59548,0.45855 -2.25739,0.46663 -0.20593,-0.0596 -0.4439,-0.0533 -0.61778,-0.17866 -0.46895,-0.33815 -0.6063,-1.07304 -0.72664,-1.55923 -0.33551,-1.35552 -0.5091,-2.75255 -0.95689,-4.08125 -0.19955,-0.56702 -0.44996,-1.37489 -0.75011,-1.93219 -0.20827,-0.38669 -0.45958,-0.3663 -0.71599,-0.65763 -0.0677,-0.0769 -0.10815,-0.17403 -0.16223,-0.26105 -0.42852,-1.16833 -0.70085,-2.40948 -1.49672,-3.40745 -0.16426,-0.1577 -0.29931,-0.35303 -0.49279,-0.47311 -0.64297,-0.39901 -2.50528,0.40802 1.20273,-1.19116 0.23583,-0.10171 -0.35678,0.37052 -0.51721,0.57107 -1.42126,1.77672 0.96005,-0.30373 -3.1922,2.52165 -0.19818,0.0227 -0.4104,0.14492 -0.59455,0.0682 -0.38883,-0.16193 -0.76602,-1.22292 -0.86255,-1.43315 -0.44673,-0.97293 -0.84531,-1.99016 -1.65655,-2.72856 -1.06487,-0.32207 -0.79626,-0.10416 1.09908,-1.12121 0.24254,-0.13015 -0.45335,0.31227 -0.67834,0.47082 -1.38616,0.97676 -2.82962,1.87466 -4.35091,2.62814 -0.73815,0.16415 -0.25223,0.10537 -0.83947,0.0908 -0.10825,-0.003 -0.21742,-0.009 -0.3248,0.005 -0.11044,0.0143 -0.41605,0.14273 -0.32457,0.0792 2.83015,-1.96509 2.18449,-1.43473 1.44955,-0.78497 -0.74222,1.18663 -0.003,-0.0176 -0.76515,1.29991 -0.13621,0.23548 -0.2048,0.53318 -0.41977,0.69988 -0.85269,0.66121 -1.77683,1.23328 -2.72865,1.74152 -0.18472,0.0986 -0.42349,0.10233 -0.62622,0.0499 -0.23224,-0.0601 -0.41097,-0.24756 -0.61646,-0.37135 -1.5392,-1.48569 -2.93665,-3.1116 -4.4719,-4.6024 0,0 2.24652,-1.37667 2.24652,-1.37667 z"
       inkscape:connector-curvature="0" />
    <path
       style="opacity:0.75199998;fill:#ffd42a"
       id="path4228"
       d="m 543.83091,200.53203 c -0.29524,1.18194 -0.0167,2.3945 0.20246,3.56502 0.1767,-0.0386 0.0664,0.72044 0.33369,0.72953 0.11098,0.004 0.33204,-0.2828 0.22867,-0.24225 -0.60001,0.23537 -1.10654,0.73667 -1.7433,0.83641 -0.29639,0.0464 0.41526,-0.4334 0.61265,-0.65932 0.19993,-0.22882 0.38584,-0.46952 0.57876,-0.70428 1.2134,-1.51524 1.38925,-1.60766 3.67322,-2.71338 0.1388,-0.0672 0.31215,-0.008 0.46166,0.0298 0.36434,0.092 0.49894,0.26515 0.7731,0.50121 0.31643,0.25826 0.45649,0.76031 0.84136,0.94438 0.4764,0.22784 1.37644,-0.0522 1.84361,-0.14262 0.90539,-0.17429 1.86455,-0.62468 2.79435,-0.29489 0.4153,0.1473 0.63596,0.38015 0.96384,0.65382 0.3486,0.28655 0.62428,0.74723 1.08546,0.879 0.52671,0.15048 1.24323,-0.0712 1.7632,-0.16523 0.22909,0.0407 0.4743,0.0284 0.68726,0.12216 0.57938,0.255 0.91066,0.74567 1.2415,1.25532 0.53395,0.82258 0.90937,1.7436 1.31498,2.63231 0.10537,0.22097 0.20628,0.44413 0.31612,0.66291 0.21761,0.43343 0.31081,0.53457 0.48874,0.97379 0.23417,0.57804 0.33108,1.1766 0.43819,1.78761 0.17925,0.96667 0.27095,1.9469 0.42052,2.91782 0.0527,0.34218 0.17734,1.09667 0.32342,1.4476 0.0592,0.14219 0.16612,0.2594 0.24918,0.38911 0.10267,0.0647 0.19097,0.16199 0.30802,0.19395 0.39132,0.10683 0.95239,-0.10479 1.3381,-0.15967 0.14212,-0.0202 0.29486,-0.0763 0.42978,-0.0273 0.16162,0.0587 0.26536,0.21881 0.39804,0.32821 0.69701,1.08558 0.74976,2.40905 0.83396,3.6603 0.0361,0.27401 0.0502,0.64015 0.20591,0.88943 0.42694,0.68367 1.3462,1.20293 1.98893,1.64265 0.27672,0.18932 0.55419,0.37755 0.83129,0.56633 0.79729,0.60672 1.8726,1.19403 1.85269,2.34471 -0.0128,0.73729 -0.3815,1.49314 -0.6317,2.15239 -0.49835,1.18324 -1.13174,2.30402 -1.66097,3.47248 -0.23193,0.51205 -0.50978,1.00793 -0.41303,1.59655 0.0362,0.22029 0.17869,0.40917 0.26804,0.61375 0.36197,0.51553 0.86497,0.88993 1.33741,1.29432 0.15752,0.13483 0.54452,0.44646 0.65265,0.64389 0.0839,0.15328 0.10895,0.33211 0.16342,0.49816 0.008,0.1866 0.047,0.37432 0.025,0.55981 -0.0648,0.54635 -0.31498,1.1529 -0.5094,1.65355 -0.30311,0.78055 -0.63993,1.54179 -1.00298,2.29581 -0.15533,0.40698 -0.58716,0.96885 -0.50578,1.44142 0.0126,0.0729 0.0975,0.242 0.12514,0.30137 0.22411,0.49632 0.28195,1.04237 0.29583,1.58083 -0.008,0.54445 -0.23119,1.03552 -0.41182,1.53728 -0.0476,0.13222 -0.11292,0.26081 -0.13386,0.39976 -0.0157,0.10435 0.0174,0.21033 0.0261,0.3155 0.26743,0.39851 0.67818,0.70191 1.13163,0.86537 0.14557,0.0525 0.30384,0.0589 0.45577,0.0883 0,0 -2.14126,1.47616 -2.14126,1.47616 l 0,0 c -0.16026,-0.0495 -0.32701,-0.0813 -0.48076,-0.14834 -0.52507,-0.2288 -0.97652,-0.57695 -1.28294,-1.06265 -0.0233,-0.14124 -0.0806,-0.28096 -0.07,-0.42372 0.0108,-0.14449 0.084,-0.27745 0.13242,-0.41402 0.16805,-0.47427 0.40179,-0.92506 0.42791,-1.43843 0.0159,-0.50002 -0.0474,-1.01036 -0.25318,-1.47077 -0.0481,-0.10055 -0.14129,-0.28211 -0.16558,-0.38914 -0.12903,-0.56835 0.29622,-1.1194 0.51612,-1.60302 0.38832,-0.7464 0.73465,-1.50028 1.04278,-2.28401 0.17452,-0.44389 0.42094,-1.04987 0.49538,-1.53843 0.0247,-0.16198 7.5e-4,-0.3277 10e-4,-0.49154 -0.0388,-0.13338 -0.0503,-0.27789 -0.11624,-0.40012 -0.0914,-0.16934 -0.48933,-0.51381 -0.61343,-0.62564 -0.48795,-0.4397 -1.00453,-0.8514 -1.37306,-1.40551 -0.10681,-0.24114 -0.2733,-0.46394 -0.32044,-0.72343 -0.11989,-0.65994 0.1562,-1.13825 0.42568,-1.71479 0.54253,-1.16071 1.19813,-2.26909 1.6863,-3.45627 0.26466,-0.71128 0.84761,-1.84077 0.51975,-2.64349 -0.23533,-0.57618 -1.16145,-1.17524 -1.6162,-1.54388 -0.56749,-0.39316 -1.14761,-0.76819 -1.70898,-1.17005 -0.42321,-0.30296 -0.9715,-0.67171 -1.26927,-1.13217 -0.18158,-0.2808 -0.1847,-0.65129 -0.22032,-0.96502 -0.0463,-0.98431 -0.0713,-2.13851 -0.49577,-3.04643 -0.0665,-0.14227 -0.16508,-0.26722 -0.24762,-0.40083 -0.098,-0.058 -0.18192,-0.15331 -0.29385,-0.17413 -0.13418,-0.025 -0.2719,0.0252 -0.40711,0.0438 -0.47485,0.0653 -1.00429,0.20903 -1.46851,-0.0107 -0.13696,-0.0648 -0.23314,-0.1936 -0.34971,-0.2904 -0.0865,-0.1553 -0.19688,-0.2995 -0.25934,-0.46591 -0.13859,-0.36921 -0.2477,-1.13847 -0.29792,-1.499 -0.13437,-0.96448 -0.22523,-1.93646 -0.43943,-2.88861 -0.12571,-0.57545 -0.23554,-1.16252 -0.44738,-1.71499 -0.14423,-0.37615 -0.28694,-0.61937 -0.45639,-0.99081 -0.10228,-0.22419 -0.19713,-0.45169 -0.29569,-0.67753 -0.37828,-0.87767 -0.73426,-1.78937 -1.27718,-2.58315 -0.30817,-0.45056 -0.63053,-0.88159 -1.17064,-1.06592 -0.20297,-0.0693 -0.42713,-0.0392 -0.6407,-0.0588 -0.62088,0.10156 -1.27846,0.27177 -1.89437,0.036 -0.45848,-0.17548 -0.73786,-0.61349 -1.09512,-0.91969 -0.32291,-0.2539 -0.47775,-0.4271 -0.88553,-0.54219 -0.90617,-0.25576 -1.83022,0.2067 -2.71098,0.34089 -0.45862,0.0796 -1.05754,0.22491 -1.53805,0.1611 -0.65356,-0.0868 -0.9273,-0.67351 -1.32371,-1.1106 -0.24278,-0.18228 -0.35373,-0.32258 -0.67231,-0.3473 -0.12634,-0.01 -0.47785,0.12697 -0.37677,0.0506 3.38589,-2.55948 1.21174,-0.62198 0.67906,0.0999 -0.082,0.10262 -1.01644,1.2886 -1.14105,1.38016 -0.8662,0.63641 -1.76721,1.23175 -2.71153,1.74515 -0.12354,0.0672 -0.29961,0.0304 -0.41966,-0.0428 -0.15684,-0.0956 -0.31875,-0.75454 -0.34444,-0.83801 -0.20169,-1.19749 -0.48236,-2.41313 -0.31498,-3.63148 0,0 2.39011,-1.14496 2.39011,-1.14496 z"
       inkscape:connector-curvature="0" />
    <path
       style="opacity:0.75199998;fill:#ffd42a"
       id="path4230"
       d="m 545.82391,202.82417 c -0.0708,0.73067 -0.12078,1.4628 -0.15397,2.19609 -0.0324,0.64189 -0.0723,1.27783 0.0714,1.90754 0.33547,0.58896 0.61139,0.62628 1.26312,0.46788 0.70999,-0.17257 0.97609,-0.31482 1.69325,-0.60347 1.00658,-0.37246 1.90139,-0.99733 2.89366,-1.39867 0.25075,-0.10142 0.50569,-0.26095 0.77532,-0.23945 0.70886,0.0565 0.92658,0.7564 1.22279,1.24195 0.45618,1.22091 0.71307,2.50134 0.9577,3.77737 0.0672,0.35068 0.12581,0.70297 0.1895,1.05432 0.0523,0.28838 0.0387,0.59733 0.15838,0.86486 0.0857,0.19153 0.28858,0.30465 0.43287,0.45697 0.28262,9.8e-4 0.56752,0.0387 0.84786,0.003 1.39183,-0.17775 2.85006,-0.75782 4.17311,-1.20731 0.42453,-0.14424 0.83938,-0.32108 1.27374,-0.43229 0.35109,-0.0899 0.71604,-0.11255 1.07407,-0.16883 0.28665,0.10492 0.59741,0.15905 0.85997,0.31475 1.23018,0.7295 1.53301,2.48725 1.75795,3.76531 0.13279,0.76719 0.0708,1.61834 0.51741,2.2896 0.0356,0.0514 0.0896,0.0941 0.10668,0.15429 0.2142,0.75385 0.18311,1.61618 0.22736,2.38819 0.0715,1.24717 0.051,0.90016 0.14649,2.15501 0.13535,0.60224 -0.0277,1.62873 0.57886,2.05652 0.32571,0.22969 0.4217,9.7e-4 0.7699,0.1074 0.15843,0.0484 0.28715,0.16532 0.43073,0.24798 0.12183,0.28958 0.27387,0.56822 0.36548,0.86872 0.77295,2.53542 0.20356,5.20312 -0.25777,7.73507 -0.25655,1.43651 -0.71352,2.82951 -0.97722,4.26418 -0.15493,0.8429 -0.15962,1.06021 -0.24797,1.92057 -0.0724,0.97129 -0.12261,1.946 -0.12492,2.92031 -3.4e-4,0.14722 0.01,1.25126 0.0656,1.45057 0.0386,0.13795 0.15619,0.24016 0.23429,0.36024 1.24842,0.0839 2.42829,-0.42083 3.62138,-0.70081 0.79652,-0.18691 0.81142,-0.15806 1.56309,-0.19944 0.17539,0.0259 0.35827,0.0209 0.52618,0.0778 0.67034,0.22738 0.89082,0.95656 0.99226,1.57455 0.055,0.34162 0.0218,0.68431 -0.007,1.02601 0,0 -2.34934,1.16967 -2.34934,1.16967 l 0,0 c 0.0332,-0.32228 0.0796,-0.64571 0.0365,-0.96989 -0.0699,-0.51974 -0.20126,-1.14201 -0.79349,-1.30123 -0.15394,-0.0414 -0.31682,-0.0356 -0.47524,-0.0534 -0.21644,0.015 -0.4344,0.0153 -0.64933,0.0449 -0.75764,0.10448 -1.07393,0.23456 -1.84174,0.42838 -0.51206,0.12927 -1.55311,0.40805 -2.11071,0.39023 -0.26127,-0.008 -0.50824,-0.1226 -0.76236,-0.18391 -0.0889,-0.16028 -0.22005,-0.30361 -0.26677,-0.48086 -0.05,-0.1896 -0.0452,-1.35269 -0.0432,-1.48887 0.0144,-0.98168 0.0779,-1.96239 0.12943,-2.94249 0.0567,-0.62422 0.10605,-1.31952 0.21575,-1.93875 0.25907,-1.46233 0.81701,-2.85618 1.09729,-4.31387 0.47915,-2.46212 1.04898,-5.08486 0.21117,-7.54115 -0.0819,-0.24004 -0.21936,-0.45735 -0.32904,-0.68602 -0.12629,-0.0546 -0.24658,-0.12601 -0.37888,-0.16385 -0.39341,-0.11251 -0.54429,0.015 -0.87828,-0.30239 -0.58228,-0.55328 -0.44634,-1.51869 -0.56603,-2.22254 -0.19434,-2.42037 0.0153,0.23105 -0.16305,-2.14967 -0.0487,-0.65005 -0.06,-1.57483 -0.27167,-2.20515 -0.0211,-0.0627 -0.075,-0.10901 -0.11248,-0.16352 -0.4548,-0.75625 -0.37201,-1.57441 -0.48227,-2.42761 -0.18067,-1.16317 -0.44906,-2.90442 -1.60824,-3.53453 -0.23332,-0.12684 -0.50784,-0.15557 -0.76176,-0.23335 -0.3383,0.058 -0.68268,0.0877 -1.0149,0.17397 -0.42484,0.11032 -0.83343,0.27573 -1.24996,0.41413 -0.47931,0.15926 -0.95577,0.32727 -1.43756,0.47884 -0.69644,0.2191 -2.10113,0.66913 -2.87288,0.70487 -0.33227,0.0154 -0.65788,-0.0988 -0.98682,-0.14816 -0.15839,-0.19789 -0.37861,-0.35931 -0.47517,-0.59366 -0.11287,-0.27396 -0.0873,-0.58613 -0.13161,-0.87909 -0.0535,-0.35372 -0.10147,-0.70837 -0.16209,-1.06095 -0.2145,-1.24758 -0.45496,-2.501 -0.95044,-3.67318 -0.27279,-0.40086 -0.45207,-0.96772 -1.05967,-0.95026 -0.25678,0.007 -0.49265,0.14902 -0.72951,0.24847 -0.9845,0.41336 -1.89235,1.00178 -2.89574,1.37551 -0.59427,0.23008 -1.16021,0.49598 -1.79619,0.59046 -0.75887,0.11274 -1.14409,-0.1112 -1.49742,-0.75715 -0.0662,-0.25684 -0.11779,-0.40757 -0.13655,-0.67291 -0.0305,-0.43145 0.0385,-0.86972 0.028,-1.30146 0.0428,-0.72449 0.10053,-1.44801 0.13845,-2.1728 0,0 2.3621,-1.20355 2.3621,-1.20355 z"
       inkscape:connector-curvature="0" />
    <path
       style="opacity:0.75199998;fill:#ffd42a"
       id="path4232"
       d="m 549.35525,201.7794 c -0.038,0.0892 -0.19009,0.40975 -0.1605,0.50662 0.0911,0.29811 0.73377,0.56126 0.88032,0.63033 0.51713,0.2437 1.19444,0.48252 1.72879,0.68116 0.26916,0.13727 0.56947,0.2257 0.80749,0.41181 0.69086,0.54021 1.01167,1.21545 1.38023,1.99555 0.55774,1.18054 0.9654,2.44047 1.428,3.66006 0.23673,0.21874 0.4308,0.49553 0.7102,0.65623 1.0733,0.6173 2.34958,0.39487 3.51375,0.4383 1.12045,0.0418 0.99681,0.0721 1.99784,0.38916 0.23805,0.19931 0.5174,0.35776 0.71415,0.59793 1.01136,1.23458 1.23763,3.63176 1.4078,5.18087 0.0203,0.28113 0.044,0.56204 0.0609,0.84341 0.0505,0.84495 0.0858,1.6889 0.17204,2.5318 0.13779,1.34646 0.22127,1.77685 0.42972,3.14982 0.44029,2.17136 0.78291,4.60169 2.36696,6.29278 0.18997,0.2028 0.42236,0.36123 0.63353,0.54184 0.50027,0.43287 1.24623,0.471 1.68025,0.99502 0.57477,0.69394 0.68107,1.70644 0.84581,2.55023 0.0276,0.36853 0.077,0.73608 0.0829,1.10559 0.0122,0.77247 -0.0914,2.42509 -0.14911,3.15368 -0.12495,1.57813 -0.31095,3.15222 -0.49683,4.72403 -0.19011,1.61193 -0.57843,3.18977 -0.78658,4.79859 -0.10935,1.09588 -0.31789,2.18557 -0.74362,3.20502 -0.55596,0.92786 -0.0371,0.12424 -2.54562,1.32471 0,0 2.21533,-1.46797 2.21533,-1.46797 l 0,0 c -2.26834,1.31293 -3.02368,1.5729 -2.0586,1.2269 0.53623,-0.95427 0.69929,-2.0703 0.81125,-3.1446 0.22648,-1.63545 0.66064,-3.22766 0.91213,-4.85913 0.40956,-2.9339 0.80225,-5.9147 0.53554,-8.87896 -0.15476,-0.77763 -0.2535,-1.72922 -0.8061,-2.35705 -0.44023,-0.50016 -1.19549,-0.55786 -1.65564,-1.03626 -0.21384,-0.199 -0.45025,-0.37622 -0.64153,-0.59699 -1.54056,-1.77814 -1.8648,-4.23817 -2.32801,-6.45001 -0.23812,-1.39821 -0.51006,-2.80069 -0.66926,-4.21114 -0.0702,-0.62155 -0.0414,-0.79992 -0.0629,-1.43009 -0.01,-0.2813 -0.0269,-0.56228 -0.0403,-0.84342 -0.12712,-1.49157 -0.31192,-3.82558 -1.31873,-5.00164 -0.18158,-0.21211 -0.43808,-0.34631 -0.65713,-0.51946 -0.98067,-0.29861 -0.80259,-0.30653 -1.91083,-0.35665 -1.21849,-0.0551 -2.55623,0.12142 -3.65144,-0.57971 -0.29999,-0.19205 -0.49772,-0.50969 -0.74658,-0.76453 -0.42996,-1.21769 -0.81009,-2.47959 -1.38562,-3.63934 -0.36578,-0.73709 -0.69405,-1.34034 -1.36183,-1.83214 -0.23593,-0.17375 -0.52421,-0.26192 -0.78632,-0.39288 -0.41172,-0.15589 -1.37372,-0.51081 -1.76842,-0.69814 -0.42188,-0.20023 -0.90513,-0.39656 -1.10447,-0.86751 -0.0575,-0.13595 0.0648,-0.42478 0.11109,-0.55632 0,0 2.41009,-1.1075 2.41009,-1.1075 z"
       inkscape:connector-curvature="0" />
    <path
       style="opacity:0.75199998;fill:#ffd42a"
       id="path4234"
       d="m 533.59792,206.06697 c -1.07476,0.30152 -2.08906,0.78302 -3.20076,0.93406 -0.8221,0.019 -2.29278,0.26712 1.02485,-0.87731 0.31541,-0.1088 -0.54734,0.38307 -0.80374,0.59657 -0.71194,0.59284 -1.3233,1.22696 -1.98095,1.87803 -0.75933,0.74859 -1.45389,1.56308 -2.23813,2.28686 -0.14051,0.12969 -0.27524,0.27005 -0.43795,0.3705 -2.48786,1.53576 -1.5867,1.56143 -2.83949,1.44777 -0.0822,-0.0357 -0.15793,-0.0944 -0.24667,-0.10705 -0.079,-0.0112 -0.30806,0.073 -0.23616,0.0385 0.58489,-0.28086 1.15413,-0.94141 1.78286,-0.78116 0.41134,0.10483 -0.50692,0.68367 -0.71609,1.05305 -0.98202,1.73417 -1.2154,2.54889 -1.98375,4.49043 -1.05325,2.88857 -1.86325,5.8561 -2.62625,8.83164 -0.36424,1.42048 -0.66365,2.85871 -1.11402,4.25501 -0.55291,0.94568 -0.36707,0.73501 -2.60908,1.24078 -0.0924,0.0208 -0.11478,-1.17249 -0.17185,-1.29119 0.78187,-0.23055 1.53433,-0.77088 2.34563,-0.69165 0.30483,0.0298 -0.017,0.61235 -0.0219,0.9186 -0.006,0.39101 -0.009,0.78208 -0.0115,1.17314 -0.007,1.27788 0.0444,2.54516 0.10801,3.82118 0.061,0.94792 0.0674,1.1353 0.14384,2.02735 0.0188,0.2193 0.0277,0.43999 0.0622,0.65739 0.0167,0.10573 0.0158,0.23161 0.0907,0.30804 0.0353,0.036 0.14437,-0.13672 0.0991,-0.1145 -0.7067,0.34648 -1.39558,0.72819 -2.09337,1.09229 0.88356,-0.65735 1.23605,-0.94956 2.85547,-1.27344 0.20169,-0.0403 0.25917,0.32146 0.36294,0.49906 0.44873,0.76799 0.70524,1.64375 0.98818,2.4802 0.31699,1.05251 0.16611,0.55526 0.452,1.49195 0,0 -2.25437,1.22818 -2.25437,1.22818 l 0,0 c -0.24816,-0.94851 -0.11183,-0.44858 -0.41277,-1.49877 -0.19358,-0.57077 -0.37257,-1.1511 -0.62814,-1.69898 -0.10839,-0.23236 -0.22685,-0.46146 -0.36851,-0.67516 -0.0898,-0.13552 -0.43624,-0.25078 -0.32194,-0.36641 0.56629,-0.57291 1.33437,-0.90301 2.01012,-1.34149 0.0832,-0.054 -0.15418,0.12481 -0.23127,0.18721 -0.84229,0.46672 -1.64726,1.00827 -2.52685,1.40016 -0.27919,0.12439 -0.3039,-0.53505 -0.30395,-0.53571 -0.0801,-0.90741 -0.0368,-1.82577 -0.12229,-2.73306 -0.0388,-0.77527 -0.0934,-1.76985 -0.113,-2.54547 -0.10082,-3.99686 0.0679,1.25672 -0.0405,-2.43166 -0.009,-0.29671 -0.23127,-0.66756 -0.0345,-0.88985 0.64051,-0.72373 1.55914,-1.14247 2.3387,-1.71371 -0.0569,0.24395 -0.003,0.61881 0.0239,0.8526 0.0125,0.10729 0.1401,0.25386 0.0543,0.31947 -0.61117,0.46739 -3.14664,1.95235 -1.9865,1.17542 0.116,-0.24533 0.25489,-0.48109 0.34801,-0.73598 0.28477,-0.77954 0.89598,-3.01531 1.06989,-3.63166 0.83505,-2.95946 1.65042,-5.92581 2.61091,-8.84798 0.3061,-0.84983 0.58738,-1.709 0.91828,-2.54948 0.71656,-1.82004 2.02269,-5.10447 4.63722,-4.64914 0.88053,-0.22196 0.62739,-0.17892 -1.68521,1.07595 -0.17778,0.0965 0.33063,-0.23406 0.48464,-0.36519 0.83305,-0.70927 1.54233,-1.55016 2.32131,-2.31475 0.46503,-0.4685 1.405,-1.43 1.90811,-1.88171 0.23763,-0.21335 0.47036,-0.4384 0.74267,-0.60525 0.91612,-0.56133 1.85482,-1.0876 2.8131,-1.57348 0.19405,-0.0984 0.45864,0.0707 0.65137,-0.0416 1.1114,-0.19027 2.13695,-0.67358 3.21857,-0.97832 0,0 -2.10526,1.6098 -2.10526,1.6098 z"
       inkscape:connector-curvature="0" />
    <path
       style="opacity:0.75199998;fill:#ffd42a"
       id="path4236"
       d="m 539.49137,203.16533 c -0.17112,-0.82575 -0.31588,-1.70409 -0.78761,-2.42372 -0.10434,-0.15916 -0.18162,-0.3922 -0.36636,-0.43787 -0.2033,-0.0503 -0.39704,0.13338 -0.59556,0.20008 0.40148,-0.18095 1.23825,-0.9819 1.20443,-0.54283 -0.0438,0.56917 -0.84895,0.76419 -1.25256,1.16788 -0.74606,0.7462 -1.61646,1.75284 -2.32387,2.54559 -0.30309,0.33965 -0.58537,0.69937 -0.91164,1.01683 -0.24153,0.235 -0.52426,0.42355 -0.7864,0.63533 -0.98898,0.4328 -1.91742,1.0456 -2.96694,1.29839 -0.37172,0.0895 -1.31787,-0.88246 -1.47552,-1.04497 -0.21186,-0.21838 -0.40027,-0.45834 -0.60039,-0.68753 -0.17513,-0.20056 -0.30242,-0.45612 -0.52535,-0.60171 -0.14743,-0.0963 -0.34787,-0.0547 -0.52181,-0.0821 -0.18083,0.11645 -0.74964,0.40721 -0.54248,0.34937 0.53785,-0.1502 1.00359,-0.73742 1.55183,-0.63123 0.33069,0.0641 -0.40388,0.53938 -0.59538,0.81649 -0.2536,0.36698 -0.71973,1.13495 -1.00604,1.50558 -0.12982,0.16804 -0.28384,0.31591 -0.42576,0.47386 -1.2161,0.98578 0.12969,-0.0709 -2.9934,1.79165 -0.57556,0.34325 1.09957,-0.85268 1.75859,-0.97426 0.35804,-0.0661 -0.52378,0.50805 -0.75518,0.78914 -0.85699,1.041 -1.1288,1.58315 -1.84525,2.75402 -0.71272,1.22887 -1.35226,2.49791 -2.04805,3.73608 -0.0807,0.14361 -0.57349,1.07068 -0.81762,1.23582 -0.81137,0.54886 -1.68619,0.99753 -2.52928,1.49629 -0.88146,0.21168 -1.69499,0.4313 1.82707,-1.07963 0.10659,-0.0457 -0.11909,0.20146 -0.15377,0.31214 -0.0571,0.18212 -0.0913,0.3712 -0.11952,0.55996 -0.11776,0.78792 -0.13067,1.32071 -0.18027,2.13029 -0.13923,1.95168 0.0176,3.91492 -0.15698,5.86306 -0.015,0.21583 -0.0434,0.43115 -0.0451,0.64749 -0.0113,1.42207 0.26051,2.86675 0.52976,4.25404 0.30765,1.58512 0.68192,3.156 1.04265,4.72942 0.43454,1.77595 0.93736,3.53375 1.44009,5.29118 0,0 -2.14755,1.16503 -2.14755,1.16503 l 0,0 c -0.43454,-1.79101 -0.87454,-3.58069 -1.30475,-5.37275 -0.3645,-1.5681 -0.75639,-3.12976 -1.11789,-4.69855 -0.1447,-0.62793 -0.27941,-1.25823 -0.40517,-1.89024 -0.12821,-0.64436 -0.32236,-1.61818 -0.33807,-2.32641 -0.005,-0.22022 0.0324,-0.43934 0.0486,-0.65901 0.23951,-1.94999 0.11383,-3.92379 0.22857,-5.8826 0.0316,-0.89665 0.0189,-1.80735 0.15835,-2.69603 0.0221,-0.14063 -0.0323,-0.33345 0.0813,-0.41924 1.41894,-1.07151 1.6475,-1.15355 2.65312,-1.57156 -0.62991,0.38309 -1.22657,0.82712 -1.88972,1.14926 -0.18542,0.0901 0.30878,-0.27705 0.43296,-0.4416 0.18521,-0.24544 0.33177,-0.51788 0.49001,-0.78151 0.74436,-1.24006 1.41408,-2.52296 2.12978,-3.77931 0.74814,-1.27941 0.88567,-1.59247 1.72758,-2.75124 0.2055,-0.28285 0.37087,-0.61497 0.65417,-0.81984 0.84502,-0.61109 1.78909,-1.07205 2.68948,-1.59815 0.47326,-0.27653 -3.00723,1.83595 -1.42201,0.82578 0.15724,-0.14976 0.33113,-0.28378 0.4717,-0.44928 0.30413,-0.35808 0.78584,-1.1432 1.03093,-1.51558 0.18615,-0.28284 0.304,-0.62828 0.56463,-0.84443 2.20351,-1.82749 1.87633,-1.65159 3.46221,-2.15561 0.19082,0.0762 0.40986,0.10292 0.57245,0.22854 0.20925,0.16168 0.33758,0.40715 0.5099,0.60774 0.19162,0.22307 0.37298,0.45614 0.58185,0.66314 0.20879,0.20691 0.41872,0.41995 0.66808,0.57557 0.21565,0.13458 0.8208,0.0554 0.70805,0.28323 -0.27015,0.54585 -0.94553,0.76792 -1.41829,1.15188 0.28536,-0.20503 0.59623,-0.37855 0.85607,-0.61508 0.34613,-0.31507 0.63808,-0.68498 0.95275,-1.03146 0.77229,-0.85039 1.52972,-1.73092 2.3213,-2.56345 0.38005,-0.39972 0.71523,-0.85563 1.16466,-1.17537 1.00375,-0.71413 2.11083,-1.27059 3.16625,-1.90588 0.2517,0.004 0.52494,-0.0892 0.75509,0.0128 0.18862,0.0836 0.2688,0.31497 0.37866,0.4896 0.46231,0.73488 0.63013,1.60114 0.87629,2.42102 0,0 -2.31768,1.27645 -2.31768,1.27645 z"
       inkscape:connector-curvature="0" />
    <path
       style="opacity:0.75199998;fill:#ffd42a"
       id="path4238"
       d="m 546.33091,201.06775 c -0.0639,0.35675 -0.18656,0.7229 -0.1927,1.08832 -4.5e-4,0.0268 0.0684,0.0556 0.0442,0.0673 -0.69257,0.33553 -1.36733,0.73721 -2.11126,0.93418 -0.24094,0.0638 0.3595,-0.34533 0.53925,-0.51799 1.33736,-1.4289 2.19997,-2.45269 4.37597,-2.94994 0.23295,-0.0532 0.35429,0.32909 0.48049,0.53201 0.16809,0.27029 0.26127,0.58051 0.3919,0.87076 0.38855,0.71236 0.39631,1.95208 1.09889,2.46754 0.69229,0.50791 2.02406,0.25478 2.79437,0.18009 0.90852,-0.10334 1.79148,-0.50208 2.65908,-0.004 0.73381,0.42119 1.14575,1.26978 1.54494,1.96971 0.28372,0.49972 0.49443,1.04231 0.86159,1.49095 0.20251,0.24745 0.46169,0.45674 0.68761,0.68258 0.46562,0.95764 0.57055,2.0371 0.79358,3.06567 0.0622,0.28666 0.0962,0.58414 0.20971,0.85461 0.0928,0.22105 0.26649,0.39856 0.39974,0.59784 0.2205,0.0959 0.42957,0.22424 0.6615,0.2877 0.54204,0.1483 0.99795,0.10024 1.5489,0.10372 0.36267,0.002 0.88615,-0.0217 1.24244,0.12343 0.16428,0.0669 0.29444,0.19791 0.44167,0.29687 0.10667,0.20926 0.24064,0.40672 0.32003,0.62778 0.34392,0.95759 0.35481,2.03341 0.36043,3.03363 0.004,0.7166 -0.0255,1.68274 -0.0437,2.4063 -0.002,0.27312 -0.14073,1.14196 0.23072,1.41663 0.23213,0.17164 1.24734,0.0755 1.40257,0.0606 1.19162,-0.16564 0.60401,-0.10139 1.76246,-0.19617 0.24196,0.0188 0.4984,-0.0282 0.72588,0.0564 1.0421,0.38729 1.3331,1.69973 1.52806,2.63003 0.23351,1.11427 0.3244,2.27138 0.44277,3.40027 0.13943,1.51943 0.1966,3.04415 0.27936,4.56709 0.012,0.22013 0.065,1.41208 0.1595,1.72572 0.0303,0.10056 0.12958,0.16534 0.19438,0.24801 -0.0542,0.0763 0.76262,-0.49191 0.55965,-0.3896 -0.63418,0.31966 -1.23329,0.7056 -1.8654,1.02931 -0.11554,0.0592 0.19747,-0.17171 0.31158,-0.23358 0.8341,-0.45223 1.62824,-1.00807 2.5289,-1.30649 0.14726,-0.0488 0.17988,0.25279 0.26982,0.37918 0.0513,0.17725 0.11857,0.35065 0.15395,0.53175 0.0797,0.40806 0.13002,1.16656 0.15423,1.56587 0.0488,0.80478 0.0658,1.61091 0.0847,2.41678 0.0665,0.93136 -0.01,1.85602 -0.085,2.78294 -0.0828,0.60888 -0.22466,1.68381 -0.3221,2.19691 -0.13555,0.71375 -0.30016,1.42169 -0.45656,2.13115 -0.49612,2.25049 -1.04905,4.47632 -1.66279,6.69723 -0.35256,1.13549 -0.505,1.72784 -0.9319,2.77833 -0.0912,0.22443 -0.44707,1.1222 -0.76682,1.28031 -0.81676,0.40384 -1.65314,0.76673 -2.47971,1.1501 -0.0468,-0.0896 -0.12339,-0.16906 -0.14046,-0.26866 -0.10938,-0.63857 0.20915,-2.06589 0.30917,-2.68088 0,0 2.2341,-1.09677 2.2341,-1.09677 l 0,0 c -0.0964,0.70412 -0.29282,1.74116 -0.24575,2.46753 0.003,0.0386 0.033,0.0701 0.0494,0.10514 -0.7302,0.42353 -1.47019,0.83061 -2.19061,1.27059 -0.0736,0.0449 0.17713,-0.0295 0.24513,-0.0825 0.12777,-0.0996 0.23466,-0.22689 0.32467,-0.36156 0.71669,-1.07231 1.04431,-2.36405 1.47818,-3.55762 0.20025,-0.67393 0.41616,-1.34341 0.60073,-2.02181 0.78661,-2.89115 1.42528,-5.84536 1.62645,-8.83961 0.0433,-0.92951 0.18648,-1.85242 0.13677,-2.78608 -0.0106,-1.26572 0.0218,-2.66198 -0.24116,-3.90222 -0.0315,-0.14855 -0.0882,-0.2906 -0.13232,-0.43591 -0.64106,-0.73202 -0.20231,-0.13709 1.88995,-1.37797 0.11397,-0.0676 -0.20968,0.16281 -0.32213,0.23288 -0.85695,0.53397 -1.71299,1.06997 -2.58518,1.57867 -0.12516,0.073 -0.25816,0.15225 -0.40258,0.16395 -0.13381,0.0109 -0.26015,-0.0665 -0.39022,-0.0997 -0.0662,-0.12632 -0.16637,-0.24004 -0.19865,-0.37897 -0.0758,-0.32623 -0.0833,-1.55077 -0.0881,-1.78424 -0.0314,-1.52963 -0.0605,-3.06024 -0.20628,-4.58462 -0.13368,-1.20163 -0.20049,-2.1568 -0.48079,-3.33103 -0.19668,-0.82396 -0.49268,-2.02588 -1.45193,-2.31646 -0.21886,-0.0663 -0.45662,-0.0258 -0.68493,-0.0387 -0.27876,0.0237 -0.55798,0.0425 -0.83628,0.0711 -0.31219,0.0321 -0.6216,0.0934 -0.93493,0.11108 -0.44734,0.0253 -1.21422,0.0727 -1.59881,-0.29482 -0.38374,-0.36667 -0.22384,-1.15874 -0.20685,-1.55495 0.063,-1.58295 0.23285,-3.78358 -0.32781,-5.28569 -0.0662,-0.17726 -0.18025,-0.33271 -0.27037,-0.49906 -0.126,-0.0737 -0.24006,-0.1733 -0.37801,-0.22095 -0.33611,-0.11609 -0.85476,-0.0982 -1.18781,-0.11013 -0.85329,-0.0306 -1.63435,-0.0607 -2.3495,-0.59963 -0.14125,-0.22735 -0.32298,-0.43409 -0.42376,-0.68205 -0.11219,-0.27604 -0.14417,-0.57834 -0.2069,-0.86962 -0.2092,-0.97141 -0.32935,-1.99488 -0.81017,-2.88099 -0.23294,-0.23845 -0.48603,-0.47024 -0.68597,-0.73809 -0.35159,-0.47098 -0.55423,-1.02092 -0.82823,-1.53626 -0.36117,-0.64588 -0.73669,-1.44824 -1.4405,-1.80168 -0.81319,-0.40836 -1.73326,-6e-5 -2.56833,0.0529 -0.94115,0.0683 -2.16746,0.2962 -2.97679,-0.37544 -0.69365,-0.57564 -0.69112,-1.76803 -1.10432,-2.5139 -0.1297,-0.25758 -0.22473,-0.53578 -0.3891,-0.77275 -0.66467,-0.95832 -1.62766,0.30799 1.39763,-1.5885 0.20033,-0.12559 -0.36553,0.30062 -0.53715,0.46327 -0.29824,0.28264 -0.87466,0.91287 -1.15222,1.21166 -1.02989,1.16821 -0.63057,0.84626 -3.10438,1.87189 -0.0709,0.0294 -0.0785,-0.13846 -0.082,-0.21513 -0.0142,-0.3113 0.15373,-0.77226 0.15212,-1.09853 0,0 2.39011,-1.14496 2.39011,-1.14496 z"
       inkscape:connector-curvature="0" />
    <path
       style="opacity:0.75199998;fill:#ffd42a"
       id="path4240"
       d="m 539.35355,202.97744 c -1.919,1.36311 -3.99677,2.49585 -6.06045,3.6177 -0.28259,0.15362 -2.64795,1.33639 -3.0571,1.44041 -0.43652,0.11098 -0.89958,0.0471 -1.34937,0.0707 -1.14115,-0.34026 -1.15183,-0.24581 -2.11638,-0.89605 -0.2674,-0.18027 -0.49441,-0.41518 -0.75655,-0.60302 -0.2189,-0.15685 -0.41744,-0.39335 -0.6843,-0.42944 -0.28498,-0.0385 -1.02347,0.43976 -0.83304,0.22427 0.26253,-0.29707 0.71887,-0.33454 1.07831,-0.50181 -2.31416,1.88414 -3.9717,4.38224 -5.65322,6.81021 -0.95124,1.14612 -0.58986,0.82457 -2.98283,1.94922 -0.22742,0.10688 -0.49878,-0.21848 -0.68572,-0.24082 -0.0842,-0.0101 -0.32029,0.10727 -0.23653,0.0939 0.64122,-0.10249 1.27608,-0.24134 1.91412,-0.36202 -0.11168,0.60667 -0.24597,1.20961 -0.33504,1.82 -0.49811,3.41335 -0.61007,6.88457 -0.70706,10.32815 -0.0217,1.06867 -0.002,2.13657 -0.0259,3.20497 -0.0705,2.38386 -0.0509,4.76923 -0.0558,7.15382 0.0791,1.74206 -0.0953,3.50873 0.13379,5.2424 -0.0502,0.18873 0.15058,0.363 0.16007,0.54307 0.0121,0.22899 -0.0561,0.92084 -0.0647,1.04992 -0.0182,0.27156 -0.0311,0.54346 -0.0467,0.8152 -0.0403,0.97736 -0.0891,1.95561 -0.088,2.93414 1.1e-4,0.0939 0.0915,0.2393 0.008,0.28157 -0.75099,0.37858 -1.57078,0.60156 -2.35617,0.90234 0.003,-0.40524 0.006,-0.81085 -0.0101,-1.21591 -0.002,-0.0607 -0.006,-0.12125 -0.0115,-0.18174 -0.002,-0.0213 -0.0279,-0.0542 -0.009,-0.0634 0.78223,-0.37397 1.58155,-0.7111 2.37233,-1.06665 0.0271,0.41462 -0.12332,0.89301 0.13525,1.24994 0.24946,-0.0314 0.55638,-0.14982 0.80471,-0.0417 0.53518,0.23298 0.80065,0.96357 1.05038,1.4308 0.0514,0.10541 0.59583,1.20797 0.7327,1.18175 0.0936,-0.0179 0.19196,-0.29994 0.10268,-0.2667 -0.70883,0.2639 -1.30436,0.82293 -2.04231,0.98881 -0.19104,0.043 0.10601,-0.37697 0.15901,-0.56546 0.1504,-0.89193 0.0875,-0.44349 0.18834,-1.34536 0,0 2.30041,-1.14145 2.30041,-1.14145 l 0,0 c -0.0933,0.91489 -0.0394,0.45905 -0.16154,1.36754 -0.28503,1.51145 -0.002,0.75469 -2.49706,2.35764 -0.0842,0.0541 -0.21238,0.015 -0.29816,-0.0367 -0.3088,-0.18596 -0.50068,-0.99438 -0.70932,-1.26209 -0.19569,-0.3487 -0.37977,-0.75056 -0.6808,-1.03143 -0.35716,-0.33323 -0.86291,0.0158 -1.23257,-0.29771 -0.0425,-0.0676 -0.095,-0.12978 -0.12758,-0.20268 -0.16405,-0.36744 -0.0477,-0.78984 -0.0896,-1.17806 2.98686,-1.70208 2.38469,-2.21159 2.3507,-1.08769 -0.0121,0.40147 -0.006,0.80356 0.0129,1.2047 -0.77807,0.49524 -1.51455,1.06285 -2.33421,1.48572 -0.089,0.0459 0.0259,-0.19865 0.033,-0.29851 0.0135,-0.18932 0.0201,-0.37908 0.0288,-0.56868 0.0363,-0.79524 0.0634,-1.5909 0.0933,-2.38639 0.0182,-0.5806 0.0508,-1.16872 0.0457,-1.74981 -0.002,-0.20302 -0.16733,-0.38662 -0.12679,-0.59653 -0.16576,-1.77113 0.0582,-3.56029 -0.0148,-5.33546 -0.009,-2.36256 0.006,-4.72605 -0.0745,-7.0876 -0.0253,-1.10131 0.0911,-2.19152 0.16907,-3.29042 0.25589,-4.0587 0.48781,-8.12342 0.94443,-12.16523 0.82369,-0.76391 1.59987,-1.5825 2.47109,-2.29172 0.11645,-0.0948 0.47079,0.10324 0.57581,0.11774 0.0939,0.013 0.36047,-0.0729 0.28384,-0.0171 -0.58339,0.42456 -1.18781,0.8295 -1.83589,1.14665 -0.19484,0.0953 0.30078,-0.31266 0.45117,-0.46899 1.76044,-2.40647 3.43096,-4.91839 5.67088,-6.91828 0.19075,-0.11275 2.83806,-2.3165 4.19971,-1.99596 0.2666,0.0628 0.46012,0.29796 0.67976,0.46159 0.24682,0.18388 0.46278,0.40865 0.71841,0.58006 0.90345,0.60577 0.93163,0.51523 2.0011,0.79814 1.66043,-0.14827 1.02286,0.0457 2.68091,-0.74081 0.53628,-0.25439 1.04715,-0.56206 1.59148,-0.79874 0.15522,-0.0675 -0.56323,0.3752 -0.4179,0.28845 1.16948,-0.69808 1.22097,-0.75435 2.19237,-1.43096 0,0 2.43403,-0.98245 2.43403,-0.98245 z"
       inkscape:connector-curvature="0" />
    <path
       style="opacity:0.75199998;fill:#ffd42a"
       id="path4242"
       d="m 574.08055,237.12045 c 0.26496,1.65048 0.30024,3.32922 0.37554,4.99661 0.0433,1.07471 0.0239,0.55562 0.0589,1.55722 0,0 -2.27956,1.1682 -2.27956,1.1682 l 0,0 c -0.012,-1.00992 -0.004,-0.48678 -0.0263,-1.56942 -0.0541,-1.63198 -0.0875,-3.28571 -0.44719,-4.88476 0,0 2.31865,-1.26785 2.31865,-1.26785 z"
       inkscape:connector-curvature="0" />
    <path
       style="opacity:0.75199998;fill:#ffd42a"
       id="path4244"
       d="m 565.07355,252.36953 c 0.13786,-1.90876 0.63788,-3.77697 1.15343,-5.6138 0.30582,-0.84558 0.44367,-1.80751 0.93045,-2.58307 0.0829,-0.13203 0.1871,-0.24937 0.28064,-0.37406 0.96123,-0.9436 2.03102,-1.76695 3.01494,-2.68661 0.22176,-0.24042 0.45847,-0.45968 0.60516,-0.75929 0.51326,-1.04825 0.0964,-2.35397 -0.11359,-3.41815 -0.34524,-1.79196 -0.88569,-3.53545 -1.33267,-5.30223 -0.17601,-0.69705 -0.24386,-1.41154 -0.25425,-2.12826 -0.0374,-0.96756 -0.25806,-1.91412 -0.48136,-2.85231 -0.42452,-1.58122 -1.11707,-3.06114 -1.85356,-4.51646 -0.89146,-1.61483 -1.79029,-3.26336 -3.00551,-4.66499 -0.15916,-0.18357 -0.33568,-0.35135 -0.50351,-0.52703 -0.36596,-0.31604 -0.75419,-0.63796 -1.21482,-0.80895 -0.39076,-0.14506 -0.18493,-0.019 -0.55239,-0.0906 -0.0911,-0.0178 -0.17728,-0.0552 -0.26592,-0.0828 -0.13061,-0.1568 -0.27543,-0.30278 -0.39183,-0.4704 -0.63202,-0.91014 -1.10072,-1.94137 -1.63059,-2.91055 -0.60868,-1.11332 -0.567,-1.01907 -1.19948,-2.05961 -0.42667,-0.62436 -0.85588,-1.26613 -1.41499,-1.7838 -0.11176,-0.10348 -0.22452,-0.21079 -0.35837,-0.28349 -0.2879,-0.1564 -0.52677,-0.12419 -0.8432,-0.1352 -0.72183,0.0711 -1.47096,0.46806 -2.17947,0.0993 -0.63544,-0.33071 -1.23699,-1.01191 -1.72152,-1.48639 -1.28314,-1.33153 -2.43471,-2.81449 -3.92377,-3.93324 -0.71793,-0.53939 -0.96996,-0.6244 -1.74562,-1.01231 -0.48132,-0.17791 -0.99418,-0.39718 -1.50768,-0.4778 -1.00517,-0.15783 -2.00532,0.0786 -2.97056,0.32867 -0.21023,0.0625 -0.42082,0.12373 -0.63067,0.18744 -0.2655,0.0806 -0.72214,0.23087 -1.00112,0.29973 -1.30364,0.32175 0.38505,-0.12187 -0.92842,0.16313 -0.19788,0.0429 -0.39051,0.10727 -0.58577,0.16091 -0.26761,0.13295 -1.0992,0.36073 -0.80282,0.39884 0.35824,0.0461 1.12136,-0.71726 1.01802,-0.37117 -0.16785,0.56211 -0.8615,0.79724 -1.27075,1.21754 -1.11245,1.14252 -2.11044,2.39317 -3.12103,3.62432 -1.25169,1.4971 -1.95479,2.25022 -4.2694,2.68501 -0.34371,0.0646 -0.61529,-0.33599 -0.90048,-0.53842 -0.53452,-0.3794 -1.21604,-1.03217 -1.69979,-1.47639 -0.5155,-0.37514 -1.26348,-1.41966 -1.93995,-1.51852 -0.23593,-0.0345 -0.90779,0.24496 -0.70532,0.11905 0.32869,-0.2044 1.17573,-0.74576 1.10207,-0.36578 -0.12714,0.65584 -0.882,1.00362 -1.323,1.50543 -1.49395,1.99264 -2.75066,4.14769 -3.93689,6.33312 -0.44415,0.81828 -1.19699,2.26404 -1.58438,3.16271 -0.18415,0.4272 -0.33255,0.86894 -0.49883,1.30342 -0.11875,0.45388 -0.26739,0.90098 -0.35625,1.36165 -0.2587,1.34107 -0.36432,2.80362 -0.44017,4.15803 -0.14228,2.54094 -0.14069,5.08885 -0.16191,7.63268 0.005,0.79625 0.006,1.59254 0.0152,2.38876 0.0248,2.24934 0.031,1.56556 0.0718,3.59996 0.0178,0.89093 0.0269,1.76589 -0.0479,2.65318 -0.0603,0.63319 -0.2621,0.69394 -0.60031,1.15463 -0.38896,0.52983 -0.56223,0.88152 -0.8965,1.47068 -0.57029,1.03403 -1.10809,2.09667 -1.43542,3.23628 -0.19563,0.68107 -0.18913,0.78374 -0.28977,1.46138 -0.0684,0.95879 -0.13379,1.93685 -0.0252,2.89622 0.0296,0.26141 0.0789,0.5202 0.11835,0.7803 0.1723,0.84041 0.36817,1.67769 0.59957,2.50401 0.0509,0.18176 0.21741,0.80258 0.36628,1.00602 0.0382,0.0522 0.11505,0.059 0.17257,0.0885 0.63216,-0.80499 -0.0809,0.14945 -1.92481,0.91291 -0.11161,0.0462 0.13674,-0.19992 0.1924,-0.30714 0.0601,-0.11585 0.1045,-0.23925 0.15394,-0.36005 0.13917,-0.34009 0.21905,-0.5688 0.35016,-0.92505 0.44096,-1.35361 0.97415,-2.68332 1.34835,-4.05761 0.52758,-2.11819 0.86099,-4.27889 1.19975,-6.43358 0.35344,-2.00064 0.35446,-4.03949 0.38565,-6.06422 0.0331,-2.37561 -0.002,-4.75146 -0.0562,-7.12646 0,0 2.28715,-1.16604 2.28715,-1.16604 l 0,0 c -0.0423,2.39661 -0.0728,4.79356 -0.0639,7.1906 -9.8e-4,0.97048 10e-4,1.94097 -0.003,2.91145 -0.004,1.05529 -0.0124,2.11243 -0.27126,3.14332 -0.2167,1.10589 -0.41947,2.21339 -0.60737,3.32461 -0.13446,0.79525 -0.24564,1.59442 -0.38779,2.38833 -0.0429,0.23958 -0.0997,0.47647 -0.14957,0.71471 -0.0436,0.18632 -0.075,0.37592 -0.13078,0.55898 -0.1195,0.39241 -0.29861,0.76422 -0.43803,1.15 -0.3283,0.90839 -0.245,0.71866 -0.54371,1.67016 -0.0732,0.23328 -0.15041,0.46529 -0.22562,0.69793 -0.47208,1.46396 -1.1078,3.58651 -3.35033,3.18106 -0.0705,-0.0727 -0.16085,-0.13049 -0.2116,-0.21818 -0.1291,-0.22309 -0.28738,-0.86897 -0.3375,-1.06629 -0.2128,-0.83787 -0.39874,-1.68274 -0.60718,-2.52169 -0.0502,-0.26278 -0.11081,-0.52378 -0.15067,-0.78833 -0.14707,-0.9759 -0.0664,-1.97679 0.01,-2.9544 0.0922,-0.63221 0.10882,-0.87653 0.28272,-1.50673 0.31983,-1.15902 0.86853,-2.23682 1.4388,-3.2886 0.29635,-0.56487 0.48069,-0.94011 0.80087,-1.47128 0.0708,-0.11753 0.13536,-0.24139 0.2274,-0.34317 0.26959,-0.29813 0.13041,0.11264 0.33309,-0.32392 0.0555,-0.11962 0.0829,-0.2504 0.12436,-0.37561 0.14787,-0.89912 0.18855,-1.78508 0.20814,-2.69738 0.0434,-2.02128 0.0321,-4.0437 0.0573,-6.06517 0.008,-2.53976 0.0128,-5.08021 0.10586,-7.61871 0.0383,-1.04482 0.11954,-3.04625 0.29688,-4.1375 0.0764,-0.47034 0.2288,-0.92516 0.3432,-1.38774 0.17302,-0.44516 0.32441,-0.89936 0.51906,-1.3355 0.38306,-0.85829 1.26035,-2.45877 1.68735,-3.22479 1.20616,-2.16378 2.45544,-4.30791 3.86339,-6.34816 1.68751,-2.10122 1.32115,-1.97509 4.45122,-3.58147 0.23612,-0.12117 0.53937,-0.0675 0.79619,-5.4e-4 0.71604,0.18667 1.35719,1.17919 1.9206,1.60298 0.50369,0.46391 1.09369,1.04977 1.67876,1.41507 0.26837,0.16757 0.96947,0.10906 0.8583,0.40528 -0.22273,0.59345 -0.96575,0.82186 -1.4653,1.21205 -0.5265,0.41124 2.3548,-1.96518 1.409,-1.42532 1.03947,-1.23447 2.05947,-2.49247 3.16508,-3.66918 0.39283,-0.41809 0.75267,-0.87805 1.21153,-1.22238 2.37445,-1.78184 2.3396,-1.71194 4.10665,-2.50708 0.50845,-0.12751 1.02282,-0.21058 1.52943,-0.34266 0.22073,-0.0575 0.77627,-0.22545 0.97874,-0.2826 0.20814,-0.0587 0.41722,-0.11415 0.62583,-0.17122 1.00115,-0.22954 2.01798,-0.42647 3.04565,-0.22134 0.52755,0.1053 1.01713,0.3372 1.50986,0.53998 0.76893,0.41724 1.03399,0.52068 1.74317,1.08343 1.45827,1.15718 2.58237,2.66123 3.91357,3.94926 0.54564,0.47888 1.05105,1.02995 1.74262,1.30921 0.70832,0.28602 1.457,-0.18369 2.17682,-0.13452 0.41574,0.0582 0.57829,0.0314 0.93376,0.26599 0.69151,0.45636 1.26209,1.54502 1.72642,2.1946 0.58654,1.00817 0.60019,1.02051 1.18744,2.07825 0.52334,0.94263 1.00585,1.95795 1.69552,2.79695 0.10116,0.12306 0.23386,0.21637 0.35079,0.32455 0.17333,0.0398 0.35074,0.0635 0.52102,0.11471 0.60024,0.18064 1.08252,0.61019 1.52769,1.03141 1.40453,1.58723 2.45907,3.43863 3.48518,5.28426 0.76765,1.45817 1.53022,2.92672 1.97023,4.52371 0.21726,0.95277 0.46734,1.90697 0.53805,2.88466 0.0152,0.70293 0.0453,1.40683 0.1974,2.09638 0.37746,1.79358 0.86013,3.56371 1.24485,5.35588 0.22569,1.03187 0.70106,2.50264 0.30025,3.54326 -0.13598,0.35305 -0.35474,0.55103 -0.59821,0.82908 -0.97119,0.91592 -2.01679,1.74751 -3.00343,2.64672 -0.098,0.10644 -0.20902,0.20222 -0.29401,0.3193 -0.0761,0.10479 -0.12627,0.22616 -0.18549,0.3413 -0.36497,0.70963 -0.60703,1.47705 -0.84829,2.23498 -0.54985,1.77923 -1.06884,3.62194 -1.08209,5.49621 0,0 -2.3529,1.19886 -2.3529,1.19886 z"
       inkscape:connector-curvature="0" />
    <path
       style="opacity:0.75199998;fill:#ffd42a"
       id="path4246"
       d="m 515.56827,252.54447 c -0.12987,-1.4475 -0.31266,-2.88995 -0.50174,-4.33071 -0.12729,-0.96991 -0.23915,-1.92971 -0.50116,-2.87255 -0.22161,1.07449 0.017,-0.44251 2.00312,-0.60432 0.24241,-0.0197 -0.11717,0.47216 -0.16956,0.70966 -0.10226,0.46366 -0.16542,0.94433 -0.30849,1.39849 -0.80884,0.18471 -1.64171,0.82325 -2.4265,0.55414 -0.43071,-0.1477 0.0253,-0.91079 0.0633,-1.36453 0.0853,-1.01928 0.40503,-3.64537 0.53226,-4.60187 0.10464,-0.78664 0.19226,-1.57648 0.33679,-2.35678 0.16169,-0.87289 0.38745,-1.7327 0.58117,-2.59905 0.34731,-1.07723 0.67269,-2.16178 1.04193,-3.2317 0.16499,-0.47807 2.49684,-6.80973 2.65664,-7.24879 0.0414,-0.11375 1.97611,-5.49628 2.14572,-5.94146 0.26484,-0.69511 0.55848,-1.37889 0.83772,-2.06833 0.64872,-1.33552 0.74251,-1.77946 1.74339,-2.87758 0.40545,-0.44486 0.86753,-0.83597 1.32865,-1.22281 1.81004,-1.51847 3.85514,-2.59905 5.89802,-3.77671 0.43593,-0.20189 0.8676,-0.41327 1.30781,-0.60567 0.45155,-0.19735 0.91278,-0.37186 1.36687,-0.5633 1.52339,-0.64224 3.03516,-1.30946 4.5101,-2.05648 -0.51916,0.28048 -1.01109,0.61858 -1.55746,0.84145 -0.18035,0.0736 0.30455,-0.24467 0.43928,-0.38534 0.13724,-0.1433 0.2593,-0.30123 0.37361,-0.46341 0.33825,-0.47992 0.58579,-1.01934 0.84671,-1.54278 0.57931,-1.1071 0.78546,-0.93335 2.69055,-1.67263 0.0729,-0.0283 0.18755,0.58856 0.19891,0.64258 0.0214,0.0306 0.0279,0.1007 0.0642,0.0918 0.0636,-0.0156 0.19511,-0.17028 0.13655,-0.14107 -0.6376,0.31804 -1.25518,0.67473 -1.88277,1.0121 0,0 2.42766,-0.94189 2.42766,-0.94189 l 0,0 c -0.0651,0.0367 -2.14469,1.95952 -2.97462,1.40541 -0.0562,-0.0375 -0.0683,-0.11663 -0.10239,-0.17495 -0.002,-0.007 -0.10115,-0.40177 -0.081,-0.41381 0.7388,-0.44129 1.49319,-0.85593 2.23979,-1.2839 -0.0522,0.0349 -0.11569,0.0569 -0.15652,0.10457 -0.0783,0.0913 -0.12925,0.20279 -0.19387,0.30418 -0.37025,0.70099 -0.67799,1.48668 -1.19779,2.09545 -0.79298,0.92872 -2.54801,1.68507 -3.24636,2.10151 -2.34035,1.1366 -4.77454,2.05989 -7.11751,3.18898 0.29164,-0.17589 1.14224,-0.73868 0.87492,-0.52767 -0.39827,0.31438 -0.85429,0.54822 -1.26983,0.83939 -0.87521,0.61328 -1.96474,1.41711 -2.70491,2.19261 -1.04596,1.09589 -1.1431,1.5125 -1.85991,2.86311 -0.31063,0.70053 -0.63915,1.39339 -0.9319,2.10157 -0.56472,1.3661 -1.82881,4.74994 -2.29367,6.0082 -0.50028,1.3541 -2.12273,5.79848 -2.58228,7.20247 -0.34264,1.04683 -0.63161,2.11046 -0.94741,3.16569 -0.18338,0.85526 -0.39344,1.70524 -0.55014,2.56579 -0.21966,1.20636 -0.50455,3.53017 -0.60871,4.74697 -0.06,0.7011 -0.10363,1.40404 -0.12224,2.10746 -0.0113,0.42765 0.29362,0.94412 0.0325,1.28297 -0.58092,0.75385 -1.54136,1.11678 -2.31204,1.67518 0.0519,-0.0243 0.1291,-0.0221 0.15559,-0.0729 0.10969,-0.21021 0.26471,-1.09441 0.29244,-1.24128 0.0452,-0.23952 -0.0401,-0.54445 0.12929,-0.71972 2.09067,-2.16317 1.55865,-2.39255 2.61987,-1.72478 0.40839,2.39113 0.46528,4.84061 1.03222,7.2081 0,0 -2.30673,1.21894 -2.30673,1.21894 z"
       inkscape:connector-curvature="0" />
    <path
       style="opacity:0.75199998;fill:#ffd42a"
       id="path4248"
       d="m 539.89149,202.92415 c -0.58226,0.34206 -1.2297,0.53429 -1.88982,0.65396 -0.10846,-0.0147 -0.22948,0.009 -0.32538,-0.0439 -0.2712,-0.14911 -0.49182,-0.54651 -0.65508,-0.77686 -0.31231,-0.44069 -0.62492,-0.83388 -1.01371,-1.20807 -0.15367,-0.0398 -0.30226,-0.12056 -0.461,-0.11948 -0.51938,0.004 -1.34056,0.31947 -1.76272,0.49423 -0.79917,0.33083 -1.87049,0.8678 -2.59005,1.32755 -0.26942,0.17214 0.56857,-0.29256 0.85286,-0.43884 -1.45429,0.89138 -2.81761,1.90264 -3.91455,3.2231 -1.27288,1.53224 -1.67088,2.27023 -2.78544,3.993 -2.07731,3.34969 -3.68193,6.96079 -5.66926,10.35998 -0.98673,1.57813 -1.3997,3.41283 -1.78676,5.21065 -0.28984,1.34623 -0.58871,3.09247 -0.83003,4.44544 -0.34373,2.05921 -0.64471,4.12523 -0.98607,6.18476 0,0 -2.25164,1.09517 -2.25164,1.09517 l 0,0 c 0.43472,-2.07959 0.79843,-4.17341 1.16021,-6.26676 0.16166,-0.92376 0.60919,-3.49978 0.78556,-4.43432 0.33726,-1.78705 0.6162,-3.652 1.60584,-5.21692 2.16414,-3.37523 3.86006,-7.02284 5.90588,-10.46818 1.10356,-1.78041 2.1548,-3.62352 3.63864,-5.12648 0.83758,-0.84837 1.85472,-1.47309 2.84795,-2.1159 1.1058,-0.65667 2.20501,-1.32455 3.31739,-1.97001 0.87444,-0.50739 1.72853,-0.96593 2.67043,-1.3351 0.56335,-0.2208 1.30002,-0.49073 1.9395,-0.41686 0.18889,0.0218 0.3519,0.14415 0.52785,0.21622 0.39347,0.39949 0.69501,0.7997 1.03252,1.24599 0.13049,0.17255 0.31171,0.48808 0.55801,0.56443 0.0897,0.0278 0.18777,-0.006 0.28165,-0.009 0.65501,-0.14977 1.28638,-0.37497 1.85805,-0.73543 0,0 -2.06083,1.6673 -2.06083,1.6673 z"
       inkscape:connector-curvature="0" />
    <path
       style="opacity:0.75199998;fill:#ffd42a"
       id="path4250"
       d="m 544.29158,201.53823 c 0.63517,1.93856 1.4447,3.91605 2.45541,5.69146 0.16403,0.28813 0.3499,0.56327 0.52484,0.8449 0.52962,0.81571 1.21778,1.49655 2.0062,2.05795 0.13939,0.0479 0.27579,0.10562 0.41815,0.14384 0.26534,0.0712 0.53521,0.12435 0.80337,0.18409 1.90857,0.42519 3.83238,0.74399 5.75843,1.07734 0.36409,0.10113 0.75982,0.12377 1.09227,0.30339 1.87056,1.01066 2.14863,4.15244 2.35583,5.99391 0.12745,2.4517 0.15384,4.90752 0.18013,7.36201 0.0196,1.83532 -0.0413,0.90741 0.12533,2.51516 0.13008,0.21546 0.20055,0.48096 0.39024,0.64637 0.58,0.50577 1.54387,0.17471 2.20759,0.35224 0.91563,0.24492 0.89469,0.54851 1.45246,1.33804 0.98112,1.8568 1.28793,3.97297 2.13776,5.87988 0.0926,0.20771 0.20534,0.40582 0.308,0.60873 0.30449,0.56664 0.9532,0.80946 1.20395,1.41594 0.30449,0.73646 0.35571,1.50154 0.47364,2.2832 0.35314,2.96195 0.38857,5.95855 0.82108,8.91071 0.20178,1.21369 0.54984,2.39557 0.89238,3.57488 0.2083,0.71714 0.48942,1.7177 0.76652,2.42687 0.10995,0.28139 0.25217,0.54909 0.37826,0.82363 0.63198,0.6216 0.71582,0.50543 1.45819,0.1775 0,0 -2.04656,1.5874 -2.04656,1.5874 l 0,0 c -0.88258,0.19583 -1.00204,0.21456 -1.61758,-0.52514 -0.11703,-0.28823 -0.24698,-0.57155 -0.3511,-0.8647 -0.25426,-0.7159 -0.52826,-1.73476 -0.74023,-2.44994 -0.17201,-0.58032 -0.60361,-1.95658 -0.75939,-2.56903 -0.0846,-0.33256 -0.14369,-0.67109 -0.21553,-1.00663 -0.32586,-2.96985 -0.27805,-5.97563 -0.75656,-8.93225 -0.14874,-0.75473 -0.21692,-1.42948 -0.54192,-2.12215 -0.2739,-0.58375 -0.95883,-0.85237 -1.19813,-1.46439 -0.3011,-0.67026 -0.35516,-0.74621 -0.59743,-1.50209 -0.53726,-1.67623 -0.89112,-3.42753 -1.76358,-4.97847 -0.2194,-0.27774 -0.38424,-0.60911 -0.65819,-0.83321 -0.46097,-0.37708 -0.98052,-0.2927 -1.51658,-0.34885 -0.54581,-0.0572 -1.12538,-0.0756 -1.54597,-0.51117 -0.19937,-0.20647 -0.26448,-0.50948 -0.39672,-0.76421 -0.027,-0.38022 -0.0723,-0.75957 -0.0811,-1.14064 -0.0238,-1.02936 0.0348,-2.05908 0.034,-3.08871 -0.002,-1.89174 -0.0319,-3.78581 -0.19789,-5.67144 -0.20893,-1.74909 -0.46328,-4.76959 -2.26249,-5.71077 -0.32294,-0.16893 -0.70031,-0.20214 -1.05047,-0.30321 -1.45877,-0.27678 -2.92043,-0.53499 -4.383,-0.79096 -0.23808,-0.0417 -1.8772,-0.3103 -2.31641,-0.43002 -0.16639,-0.0454 -0.32089,-0.12652 -0.48133,-0.18978 -0.793,-0.60208 -1.45245,-1.34559 -1.96342,-2.20323 -0.16844,-0.29155 -0.3462,-0.57791 -0.50532,-0.87465 -0.98183,-1.8311 -1.73186,-3.77684 -2.59519,-5.66376 0,0 2.29813,-1.26004 2.29813,-1.26004 z"
       inkscape:connector-curvature="0" />
    <path
       style="opacity:0.75199998;fill:#ffd42a"
       id="path4254"
       d="m 545.18532,205.99847 c -1.21734,-0.22652 -2.40829,-0.57196 -3.61578,-0.84573 -0.97892,-0.20114 -1.96949,-0.39314 -2.97217,-0.37768 -1.21436,0.29391 -2.36751,0.829 -3.44103,1.46241 -0.29371,0.1733 1.07743,-0.76351 0.9108,-0.46597 -0.21432,0.38268 -0.71659,0.50597 -1.07488,0.75896 -1.12581,0.89127 -2.2992,1.71466 -3.47048,2.54311 -1.89887,1.51767 -3.42504,3.43044 -4.98209,5.28135 -0.49123,0.6504 -1.10021,1.25394 -1.44436,2.00666 -0.76792,1.67954 -1.00129,3.55686 -1.32353,5.3528 -0.79244,4.52224 -1.10881,9.10577 -1.65962,13.65856 -0.18102,0.93902 -0.18349,1.918 -0.4073,2.85051 -0.0462,0.19255 -0.22066,0.76829 -0.44194,0.89615 -0.91889,0.53095 -1.89898,0.94812 -2.84847,1.42217 -1.47002,-0.31142 -0.6827,-0.0805 -2.33793,-0.76998 0,0 2.02876,-1.36397 2.02876,-1.36397 l 0,0 c 1.68499,0.58389 0.89055,0.42659 2.36038,0.57581 -0.53419,0.3842 -1.05288,0.79092 -1.60257,1.15259 -0.12222,0.0804 0.23312,-0.18433 0.31509,-0.3055 0.23703,-0.35041 0.29766,-0.7981 0.37622,-1.19702 0.11255,-0.57154 0.29242,-1.66169 0.3817,-2.18878 0.68724,-4.56053 1.10745,-9.15729 1.77383,-13.72113 0.23722,-1.66413 0.43565,-3.73529 1.05843,-5.32641 0.3117,-0.79634 0.96075,-1.41083 1.47435,-2.06938 1.56507,-1.81725 3.0673,-3.71052 4.87152,-5.30064 0.42133,-0.31734 0.86063,-0.58946 1.29311,-0.89055 0.78096,-0.5437 1.52289,-1.14098 2.29187,-1.701 1.93878,-1.39219 1.22619,-0.92713 4.37858,-2.7413 1.12582,-0.64789 2.34127,-1.24222 3.63262,-1.45318 1.00314,0.024 1.98723,0.23384 2.96365,0.4539 1.20898,0.28192 2.41354,0.65459 3.65598,0.74499 0,0 -2.14474,1.55825 -2.14474,1.55825 z"
       inkscape:connector-curvature="0" />
    <path
       style="opacity:0.75199998;fill:#ffd42a"
       id="path4256"
       d="m 543.03882,201.69084 c 1.65458,1.29358 3.35469,2.5411 4.94445,3.91541 0.41526,0.35899 0.80876,0.7424 1.21314,1.1136 1.31902,1.33471 2.34475,2.90173 3.27528,4.52114 0.35867,0.62421 0.68242,1.26793 1.03476,1.89573 0.35173,0.6267 0.68117,1.2679 1.07731,1.86752 0.37864,0.57315 0.82837,1.09602 1.24256,1.64403 1.38067,1.42703 2.61291,2.37081 4.52875,2.95352 1.17646,0.35783 1.57292,0.31853 2.7407,0.38793 0,0 -2.01432,1.43888 -2.01432,1.43888 l 0,0 c -1.16077,-0.11835 -1.55776,-0.0997 -2.7215,-0.4912 -0.54982,-0.18497 -1.09757,-0.39129 -1.60564,-0.67126 -1.33824,-0.73745 -1.84126,-1.36439 -2.94424,-2.42142 -0.41501,-0.55834 -0.86358,-1.09325 -1.24503,-1.67503 -0.39477,-0.60208 -0.72291,-1.24531 -1.07976,-1.87062 -1.26817,-2.22223 -2.48534,-4.5048 -4.34232,-6.30888 -0.40005,-0.36793 -0.78786,-0.74964 -1.20015,-1.10379 -0.58663,-0.5039 -1.9578,-1.55829 -2.58701,-2.02735 -0.48675,-0.36286 -1.41877,-1.03972 -1.97836,-1.39223 -0.17635,-0.11109 -0.36386,-0.2034 -0.54578,-0.30509 0,0 2.20716,-1.47089 2.20716,-1.47089 z"
       inkscape:connector-curvature="0" />
    <path
       style="opacity:0.75199998;fill:#ffd42a"
       id="path4258"
       d="m 540.2279,198.05879 c -0.57162,1.10524 -1.30549,2.10916 -2.07791,3.08013 -0.2816,0.32369 -0.60763,0.72546 -0.93864,1.00828 -0.80772,0.69014 -2.87072,1.44512 -3.23483,1.54247 -0.16624,0.0444 -1.24052,-0.71918 -1.29781,-0.75761 -0.50306,-0.29598 -1.549,-1.32611 -2.1405,-1.30715 -0.16499,0.005 -0.62108,0.22099 -0.47178,0.15058 0.51264,-0.24177 1.04303,-0.44396 1.56454,-0.66594 -0.2553,0.37447 -0.5501,0.72488 -0.76591,1.12342 -0.72637,1.3414 -1.40997,3.18999 -1.89051,4.59666 -0.93095,2.72516 -1.67189,5.51264 -2.42696,8.28983 -0.45019,1.62668 -0.84158,3.27151 -1.3556,4.8802 -0.19812,0.62003 -0.41675,1.19417 -0.73956,1.75643 -0.84097,0.91471 -0.11455,0.17197 -2.68957,1.57489 0,0 2.09563,-1.60876 2.09563,-1.60876 l 0,0 c -2.13274,1.28748 -2.72961,1.6518 -1.79658,1.08307 0.39824,-0.54523 0.65216,-1.11572 0.89004,-1.75149 0.60834,-1.62591 1.06288,-3.30456 1.55967,-4.96601 0.79795,-2.77221 1.55894,-5.56189 2.43498,-8.31072 0.36129,-1.13362 1.12406,-3.38948 1.66566,-4.55169 0.18793,-0.40329 0.44742,-0.76918 0.67113,-1.15377 0.11755,-0.0767 2.19186,-2.07346 3.40536,-1.90663 0.67008,0.0921 1.53927,1.06564 2.1364,1.387 0.21987,0.13373 0.42873,0.28748 0.65959,0.40117 0.188,0.0926 0.71985,0.0495 0.5909,0.21467 -0.43507,0.55729 -1.1635,0.80465 -1.72354,1.23617 -0.14594,0.11245 0.331,-0.16628 0.47842,-0.27678 0.33613,-0.25192 0.70082,-0.68531 0.97619,-0.98805 0.76009,-0.93231 1.47883,-1.90371 2.0088,-2.98893 0,0 2.41239,-1.09144 2.41239,-1.09144 z"
       inkscape:connector-curvature="0" />
    <path
       style="opacity:0.75199998;fill:#ffd42a"
       id="path4262"
       d="m 533.42898,203.59994 c -1.20946,0.54077 -2.40096,1.12359 -3.57907,1.73018 -0.74056,0.44205 -3.15443,1.66947 0.46535,-0.29679 0.15589,-0.0847 -0.29805,0.19259 -0.44357,0.29406 -0.44062,0.30727 -0.45835,0.33944 -0.88571,0.69854 -1.30166,1.34592 -2.32783,2.92974 -3.42386,4.44143 0,0 -2.31088,0.99915 -2.31088,0.99915 l 0,0 c 1.10378,-1.49642 2.11819,-3.06655 3.34235,-4.46869 1.53856,-1.39251 3.43113,-2.28003 5.24545,-3.26192 1.21159,-0.61679 2.43075,-1.22298 3.67593,-1.76898 0,0 -2.08599,1.63302 -2.08599,1.63302 z"
       inkscape:connector-curvature="0" />
    <path
       style="opacity:0.75199998;fill:#ffd42a"
       id="path4264"
       d="m 537.64395,203.86034 c -1.4062,1.83048 -2.757,3.70325 -4.10798,5.57471 -1.31949,1.87269 -2.7845,3.54011 -4.42393,5.13315 -1.04723,0.93924 -2.09505,1.87765 -3.13339,2.82672 0,0 -2.34104,0.95647 -2.34104,0.95647 l 0,0 c 1.05012,-0.94688 2.10036,-1.8937 3.16069,-2.82917 1.6339,-1.57643 3.16135,-3.25249 4.47732,-5.10848 1.32655,-1.82973 2.65622,-3.65728 3.95296,-5.50832 0,0 2.41537,-1.04508 2.41537,-1.04508 z"
       inkscape:connector-curvature="0" />
    <path
       style="opacity:0.75199998;fill:#ffd42a"
       id="path4266"
       d="m 533.64636,202.41127 c -0.17546,0.11678 -0.36117,0.21946 -0.52637,0.35034 -0.96374,0.76354 -1.64425,1.45274 -2.50133,2.38836 -1.27193,1.3885 -2.47863,2.87943 -3.60977,4.38141 -0.66175,0.87869 -1.28733,1.78404 -1.93099,2.67606 -2.40027,3.41773 -4.54001,7.01491 -6.30537,10.80152 -0.80375,1.724 -1.04394,2.40239 -1.70976,4.09529 -0.17674,0.48051 -0.35348,0.96102 -0.53023,1.44154 0,0 -2.20131,1.02148 -2.20131,1.02148 l 0,0 c 0.19795,-0.49197 0.3959,-0.98395 0.59386,-1.47592 0.71336,-1.69742 1.00398,-2.43924 1.82987,-4.16857 1.81035,-3.79066 3.94151,-7.4191 6.35114,-10.86039 1.71049,-2.40985 3.40181,-4.7774 5.34578,-7.00796 0.60639,-0.6958 1.52095,-1.70407 2.26594,-2.35022 0.14747,-0.1279 0.32021,-0.22335 0.48032,-0.33502 0,0 2.44822,-0.95792 2.44822,-0.95792 z"
       inkscape:connector-curvature="0" />
    <path
       style="opacity:0.75199998;fill:#ffffff"
       id="path4270"
       ry="4.1964288"
       rx="4.6428571"
       cy="224.95149"
       cx="533.03571" />
    <ellipse
       ry="4.1964288"
       rx="4.6428571"
       cy="224.95149"
       cx="551.42853"
       id="ellipse4272"
       style="opacity:0.75199998;fill:#ffffff" />
    <ellipse
       style="opacity:0.75199998;fill:#008080"
       id="ellipse4276"
       cx="551.33734"
       cy="225.21935"
       rx="2.7659576"
       ry="2.5000002" />
    <ellipse
       style="opacity:0.75199998;fill:#ffffff"
       id="ellipse4370"
       cx="532.67853"
       cy="224.77292"
       rx="4.6428571"
       ry="4.1964288" />
    <ellipse
       ry="2.5000002"
       rx="2.7659576"
       cy="225.21935"
       cx="532.94452"
       id="ellipse4274"
       style="opacity:0.75199998;fill:#008080" />
    <path
       style="display:inline;fill:none;fill-rule:evenodd;stroke:#000000;stroke-width:0.76062137px;stroke-linecap:butt;stroke-linejoin:miter;stroke-opacity:1"
       d="m 542.56948,229.43778 3.43164,6.92188 -3.43164,-6.92188 z m -4.17578,7.03125 7.85546,0 -7.85546,0 z"
       id="path4297"
       inkscape:connector-curvature="0" />
    <ellipse
       style="opacity:0.75199998;fill:#de8787"
       id="path4308"
       cx="542.76776"
       cy="247.54077"
       rx="7.0535712"
       ry="3.2142856" />
    <ellipse
       style="opacity:0.75199998;fill:#000000"
       id="ellipse4316"
       cx="532.85522"
       cy="225.38588"
       rx="1.9623861"
       ry="1.7736952" />
    <ellipse
       ry="1.7736952"
       rx="1.9623861"
       cy="225.38588"
       cx="551.4267"
       id="ellipse4320"
       style="opacity:0.75199998;fill:#000000" />
    <path
       style="fill:none;fill-rule:evenodd;stroke:none;stroke-width:1px;stroke-linecap:round;stroke-linejoin:round;stroke-opacity:1;fill-opacity:1"
       d="m 521.96429,186.64792 c -15.53572,-1.07143 -15.53572,0.71428 -15.53572,0.71428 l 0,-2.14285 14.28572,1.60714 -13.75,-0.89286 -0.17857,-0.53571 z"
       id="path4324"
       inkscape:connector-curvature="0" />
    <path
       style="fill:#000000;fill-rule:evenodd;stroke:none;stroke-width:1px;stroke-linecap:butt;stroke-linejoin:miter;stroke-opacity:1"
       d="m 539.08584,219.7953 c -0.24059,-0.35218 -0.45493,-0.71015 -0.64678,-1.0738 -2.10508,0.15748 -3.29721,-0.20239 -5.50899,-0.25374 -2.22417,-0.0516 -4.7386,0.32137 -8.7277,2.15563 4.145,-1.48907 6.62315,-1.43407 8.60387,-1.02816 1.66646,0.34152 3.45757,1.09446 5.60096,1.28857 0.23902,-0.35777 0.46438,-0.71912 0.67864,-1.0885 z"
       id="path4342"
       inkscape:original-d="m 539.08584,219.7953 c -4.86052,0.17918 -6.75882,-2.49202 -14.88347,0.82809"
       inkscape:connector-curvature="0"
       sodipodi:nodetypes="cc"
       inkscape:path-effect="#path-effect4344" />
    <path
       sodipodi:nodetypes="cc"
       inkscape:connector-curvature="0"
       inkscape:original-d="m 545.4616,219.60471 c 4.86111,-0.16219 6.56737,-2.95996 14.90489,-0.21791"
       id="path4338"
       d="m 545.4616,219.60471 c 0.23964,0.35344 0.4898,0.69809 0.75332,1.03822 2.12449,-0.34398 3.85837,-1.2207 5.49677,-1.67826 1.94737,-0.54385 4.41557,-0.77253 8.6548,0.42213 -4.10793,-1.54994 -6.64233,-1.74566 -8.8574,-1.53814 -2.20274,0.20636 -3.36668,0.64896 -5.47762,0.63953 -0.16587,0.37621 -0.35458,0.74833 -0.56987,1.11652 z"
       style="fill:#000000;fill-rule:evenodd;stroke:none;stroke-width:1px;stroke-linecap:butt;stroke-linejoin:miter;stroke-opacity:1"
       inkscape:path-effect="#path-effect4340" />
    <path
       style="opacity:0.75199998;fill:#ffd42a"
       id="path4252"
       d="m 560.47622,214.55853 c 1.07762,0.85538 2.15304,1.76268 3.08715,2.77553 0.55414,0.60085 1.07336,1.23407 1.57527,1.87919 0.53593,0.68884 1.06323,1.38676 1.53632,2.12018 0.49645,0.76965 0.91215,1.58848 1.36822,2.38272 1.47544,2.86902 2.49149,5.9257 3.11114,9.08662 0.27632,1.40952 0.3364,2.06685 0.51023,3.45403 0.18296,1.81224 0.25746,3.63308 0.25913,5.45387 -0.034,1.13162 -0.0463,2.25975 -0.009,3.39158 0.20811,2.00614 0.49773,4.007 0.86678,5.99014 0.0832,0.59056 0.23236,1.15532 0.46925,1.701 0,0 -2.28214,1.28148 -2.28214,1.28148 l 0,0 c -0.24084,-0.57127 -0.40096,-1.15615 -0.45923,-1.77677 -0.30162,-2.0089 -0.52537,-4.02962 -0.8413,-6.03674 -0.0771,-1.12339 -0.14263,-2.24896 -0.0648,-3.37453 0.0776,-1.83587 0.0727,-3.67609 -0.0805,-5.5085 -0.14099,-1.42092 -0.17588,-2.02241 -0.43022,-3.47019 -0.55436,-3.15555 -1.52636,-6.21541 -2.98752,-9.07275 -0.45781,-0.78389 -0.87446,-1.59332 -1.37344,-2.35167 -1.69809,-2.58074 -3.87284,-4.86703 -6.48105,-6.53349 0,0 2.22551,-1.3917 2.22551,-1.3917 z"
       inkscape:connector-curvature="0" />
    <path
       style="opacity:0.75199998;fill:#ffd42a"
       id="path4260"
       d="m 543.91554,200.05791 c 0.19206,-0.0553 0.45073,-0.14361 0.65059,-0.13484 0.21563,0.009 0.42738,0.0612 0.6401,0.0978 0.98955,0.17014 1.95619,0.42245 2.92769,0.67307 1.49106,0.48217 3.17665,0.62875 4.44285,1.64121 1.14796,0.9179 1.45237,1.60957 2.31672,2.87683 2.1474,3.51239 4.02618,7.18443 6.22768,10.66465 0.28408,0.44909 0.58733,0.88577 0.88099,1.32865 0.71082,0.93583 1.48652,1.90249 2.5632,2.43932 0.34605,0.17254 0.63863,0.23211 1.00859,0.33239 0,0 -2.13842,1.46288 -2.13842,1.46288 l 0,0 c -0.4245,-0.13199 -0.65062,-0.17705 -1.0409,-0.40014 -1.06289,-0.60757 -1.79943,-1.63444 -2.48436,-2.61494 -2.41076,-3.96875 -4.47655,-8.13983 -7.02405,-12.02711 -0.88748,-1.17204 -1.25603,-1.87115 -2.39023,-2.71245 -1.2766,-0.94694 -2.94108,-1.11511 -4.41372,-1.576 -0.94104,-0.22688 -1.22891,-0.31305 -2.16369,-0.4757 -0.45015,-0.0783 -0.97645,-0.16427 -1.44212,-0.13176 -0.16848,0.0118 -0.4835,0.12466 -0.65038,0.17947 0,0 2.08946,-1.62329 2.08946,-1.62329 z"
       inkscape:connector-curvature="0" />
    <path
       style="opacity:0.75199998;fill:#ffd42a"
       id="path4268"
       d="m 550.41566,207.55506 c 0.30158,0.31966 0.60497,0.63763 0.90475,0.95897 1.26128,1.35199 1.87442,1.97845 3.0531,3.54264 1.50287,1.99442 2.83398,4.06048 4.09338,6.21852 0.74455,1.27582 1.42654,2.58713 2.13981,3.8807 0.67851,1.287 1.35702,2.57401 2.03553,3.86101 0,0 -1.7151,0.98118 -1.7151,0.98118 l 0,0 c -0.67469,-1.28715 -1.34938,-2.57431 -2.02407,-3.86146 -0.72939,-1.27987 -1.42097,-2.58203 -2.18815,-3.8396 -2.33513,-3.82775 -5.04402,-7.48673 -8.50445,-10.37272 0,0 2.2052,-1.36924 2.2052,-1.36924 z"
       inkscape:connector-curvature="0" />
    <ellipse
       style="opacity:0.75199998;fill:#000000;fill-opacity:1;stroke:none;stroke-linecap:round;stroke-linejoin:round;stroke-opacity:1"
       id="path4354"
       cx="493.75"
       cy="267.98721"
       rx="3.5714285"
       ry="2.2321429" />
    <ellipse
       style="opacity:1;fill:#ffffff;fill-opacity:1;stroke:none;stroke-linecap:round;stroke-linejoin:round;stroke-opacity:1"
       id="path4356"
       cx="533.81866"
       cy="224.14792"
       rx="0.60439557"
       ry="0.71428567" />
    <ellipse
       ry="0.71428567"
       rx="0.60439557"
       cy="224.10327"
       cx="552.25616"
       id="ellipse4360"
       style="opacity:1;fill:#ffffff;fill-opacity:1;stroke:none;stroke-linecap:round;stroke-linejoin:round;stroke-opacity:1" />
  </g>
</svg>
