<?xml version="1.0" encoding="UTF-8" standalone="no"?>
<!-- Created with Inkscape (http://www.inkscape.org/) -->

<svg
   xmlns:dc="http://purl.org/dc/elements/1.1/"
   xmlns:cc="http://creativecommons.org/ns#"
   xmlns:rdf="http://www.w3.org/1999/02/22-rdf-syntax-ns#"
   xmlns:svg="http://www.w3.org/2000/svg"
   xmlns="http://www.w3.org/2000/svg"
   xmlns:sodipodi="http://sodipodi.sourceforge.net/DTD/sodipodi-0.dtd"
   xmlns:inkscape="http://www.inkscape.org/namespaces/inkscape"
   width="210mm"
   height="297mm"
   viewBox="0 0 744.09448819 1052.3622047"
   id="svg2"
   version="1.1"
   inkscape:version="0.91 r13725"
   sodipodi:docname="vector donut.svg">
  <defs
     id="defs4" />
  <sodipodi:namedview
     id="base"
     pagecolor="#ffffff"
     bordercolor="#666666"
     borderopacity="1.0"
     inkscape:pageopacity="0.0"
     inkscape:pageshadow="2"
     inkscape:zoom="1"
     inkscape:cx="394.91813"
     inkscape:cy="497.47145"
     inkscape:document-units="px"
     inkscape:current-layer="layer1"
     showgrid="false"
     inkscape:window-width="1280"
     inkscape:window-height="962"
     inkscape:window-x="-8"
     inkscape:window-y="-8"
     inkscape:window-maximized="1" />
  <metadata
     id="metadata7">
    <rdf:RDF>
      <cc:Work
         rdf:about="">
        <dc:format>image/svg+xml</dc:format>
        <dc:type
           rdf:resource="http://purl.org/dc/dcmitype/StillImage" />
        <dc:title />
      </cc:Work>
    </rdf:RDF>
  </metadata>
  <g
     inkscape:label="Layer 1"
     inkscape:groupmode="layer"
     id="layer1">
    <g
       id="g4248">
      <path
         id="path4136"
         d="M 319.5 317.36914 A 249.29971 240.89636 0 0 0 70.201172 558.26562 A 249.29971 240.89636 0 0 0 319.5 799.16211 A 249.29971 240.89636 0 0 0 568.79883 558.26562 A 249.29971 240.89636 0 0 0 533.99805 436.02539 A 24.926357 24.926357 0 0 1 521.33203 425.78125 A 24.926357 24.926357 0 0 1 517.66992 414.52539 A 44.821705 44.821705 0 0 1 467.09375 407.14453 A 44.821705 44.821705 0 0 1 456.47266 357.13086 A 249.29971 240.89636 0 0 0 452.61328 354.67969 A 24.926357 24.926357 0 0 1 431.80273 343.24023 A 249.29971 240.89636 0 0 0 319.5 317.36914 z M 319.5 473.95117 A 87.254906 84.313728 0 0 1 406.75586 558.26562 A 87.254906 84.313728 0 0 1 319.5 642.58008 A 87.254906 84.313728 0 0 1 232.24414 558.26562 A 87.254906 84.313728 0 0 1 319.5 473.95117 z "
         style="opacity:1;fill:#deaa87;fill-rule:evenodd;stroke:none;stroke-width:1.401;stroke-linecap:butt;stroke-linejoin:miter;stroke-opacity:1;stroke-miterlimit:4;stroke-dasharray:none" />
      <path
         id="path4247"
         d="M 322.06055 304.91016 C 320.23524 304.90069 318.40947 304.91124 316.58398 304.94141 C 225.64816 305.28749 134.61585 355.75769 90.621094 436.1582 C 66.42961 482.67307 61.083688 536.86182 66.917969 588.41406 C 69.96204 604.2045 79.239736 621.9942 96.640625 624.67578 C 111.81232 626.16087 124.40524 612.56696 127.85742 598.61914 C 133.97512 581.50282 135.97932 560.27107 151.98828 548.96484 C 159.80079 544.43147 171.60116 549.19749 172.05664 558.72461 C 178.46174 579.33812 178.15017 603.31222 193.90625 619.75 C 205.21829 630.58881 224.79839 635.8074 237.96289 625.33398 C 252.6482 610.96609 253.43206 588.71943 252.08594 569.6875 C 250.395 547.73623 251.78659 522.4442 268.51953 506.08984 C 294.78146 481.09472 339.7297 479.66926 367.20117 503.57031 C 386.28778 518.95844 397.44399 544.07468 394.00586 568.59766 C 394.21049 585.6529 397.95262 603.65775 408.43164 617.47461 C 415.67193 627.14922 429.2389 631.23793 440.33203 626 C 452.25112 621.3478 458.78737 608.79467 459.30859 596.48242 C 461.51027 580.35205 459.62827 561.08178 471.6543 548.17773 C 480.6298 541.66005 493.89413 542.07943 503.08789 547.68945 C 512.65789 557.74198 509.30594 572.99989 511.57031 585.29688 C 512.72207 598.03958 518.03143 612.12417 530.78516 617.02148 C 543.85365 623.5282 562.8906 622.45959 571.01758 608.7793 C 584.14977 588.29811 580.88688 562.59233 580.38477 539.53711 C 577.91693 504.63774 567.46354 470.4064 550.62695 439.5918 A 24.926357 24.926357 0 0 1 547.66211 441.79492 A 24.926357 24.926357 0 0 1 513.33203 433.78125 A 24.926357 24.926357 0 0 1 509.66992 422.52539 A 44.821705 44.821705 0 0 1 459.09375 415.14453 A 44.821705 44.821705 0 0 1 449.79102 362.17578 A 24.926357 24.926357 0 0 1 423.59961 350.94727 A 24.926357 24.926357 0 0 1 423 325.71484 C 391.11386 312.35572 356.63719 305.08946 322.06055 304.91016 z "
         style="color:#000000;font-style:normal;font-variant:normal;font-weight:normal;font-stretch:normal;font-size:medium;line-height:normal;font-family:sans-serif;text-indent:0;text-align:start;text-decoration:none;text-decoration-line:none;text-decoration-style:solid;text-decoration-color:#000000;letter-spacing:normal;word-spacing:normal;text-transform:none;direction:ltr;block-progression:tb;writing-mode:lr-tb;baseline-shift:baseline;text-anchor:start;white-space:normal;clip-rule:nonzero;display:inline;overflow:visible;visibility:visible;opacity:1;isolation:auto;mix-blend-mode:normal;color-interpolation:sRGB;color-interpolation-filters:linearRGB;solid-color:#000000;solid-opacity:1;fill:#502d16;fill-opacity:1;fill-rule:evenodd;stroke:none;stroke-width:25;stroke-linecap:round;stroke-linejoin:round;stroke-miterlimit:4;stroke-dasharray:none;stroke-dashoffset:0;stroke-opacity:1;color-rendering:auto;image-rendering:auto;shape-rendering:auto;text-rendering:auto;enable-background:accumulate" />
      <path
         id="path4226"
         d="M 321.81641 317.41016 C 320.08601 317.40176 318.35562 317.41242 316.625 317.44141 C 229.69103 317.9927 142.40965 366.19653 100.92383 443.60742 C 79.500091 485.29002 74.777491 533.58253 78.414062 579.64648 C 79.746167 591.90914 83.739492 606.86031 96.222656 612.03125 C 106.0319 614.19439 113.42512 604.23033 115.45898 595.69531 C 122.4934 576.72858 125.06552 553.48939 142.47266 540.52539 C 152.99333 532.82692 170.77332 531.73624 178.68555 543.67383 C 191.78731 563.60523 185.93478 590.8993 201.65234 609.58398 C 208.79854 618.47698 225.0652 623.00497 232.91602 612.70312 C 244.47032 592.6001 238.22288 569.04585 239.19531 547.12109 C 240.03632 522.53361 252.33805 497.16213 274.94531 485.76758 C 309.04371 465.76221 356.7208 471.50125 383.49219 501.19922 C 400.80132 519.07157 409.81274 544.86141 406.22852 569.57422 C 407.9309 585.40496 409.75522 604.42946 423.70312 614.56055 C 432.81381 618.96474 445.11926 611.97335 445.43945 601.68945 C 450.05025 581.9752 446.13217 558.54722 460.32422 541.94141 C 473.63925 528.29487 497.80728 527.24435 512.31055 539.48828 C 524.75818 552.15667 522.42883 571.45882 524.52734 587.61914 C 525.43634 596.60188 530.94374 605.81537 540.38086 607.47461 C 548.91623 610.32381 560.23848 607.06823 562.89453 597.75977 C 571.5064 577.96829 568.3301 555.97562 567.45898 535.08398 C 564.56508 504.97151 555.52212 475.65491 541.4707 448.95312 A 24.926357 30.903595 43.139454 0 1 539.70508 450.28516 A 24.926357 30.903595 43.139454 0 1 502.48633 445.35547 A 24.926357 30.903595 43.139454 0 1 499.75977 433.10156 A 44.821705 55.569767 43.139454 0 1 444.39648 430.83008 A 44.821705 55.569767 43.139454 0 1 440.38672 372.21094 A 24.926357 30.903595 43.139454 0 1 412.60352 362.68359 A 24.926357 30.903595 43.139454 0 1 414.15039 335.63281 C 384.84628 323.92071 353.38008 317.56324 321.81641 317.41016 z "
         style="opacity:1;fill:#6c5353;fill-rule:evenodd;stroke:none;stroke-width:1.40100002;stroke-linecap:butt;stroke-linejoin:miter;stroke-miterlimit:4;stroke-dasharray:none;stroke-opacity:1" />
      <path
         id="path4264"
         d="M 487.28906 543.38477 C 481.70182 543.39338 476.14205 544.91889 471.6543 548.17773 C 459.62827 561.08178 461.51027 580.35205 459.30859 596.48242 C 458.78737 608.79467 452.25112 621.3478 440.33203 626 C 440.13924 626.09103 439.94424 626.1724 439.75 626.25781 C 416.14108 665.25169 373.73829 693.38995 327.69336 694.94141 C 274.54479 698.34715 221.37368 667.69416 195.82227 621.46094 C 195.16218 620.90756 194.52 620.33808 193.90625 619.75 C 178.15017 603.31222 178.46174 579.33812 172.05664 558.72461 C 171.60116 549.19749 159.80079 544.43147 151.98828 548.96484 C 135.97932 560.27107 133.97512 581.50282 127.85742 598.61914 C 127.7471 599.06489 127.62683 599.51053 127.49805 599.95508 C 137.33018 641.54983 161.02308 679.97764 195.71094 705.37109 C 261.60095 756.31662 359.8768 761.89549 429.54297 715.04102 C 471.75614 688.19991 502.86781 643.61159 513.24023 594.8418 C 512.39655 591.68437 511.85526 588.44948 511.57031 585.29688 C 509.30594 572.99989 512.65789 557.74198 503.08789 547.68945 C 498.49101 544.88444 492.8763 543.37615 487.28906 543.38477 z "
         style="opacity:0.323;fill:#f9f9f9;fill-rule:evenodd;stroke:none;stroke-width:1.40100002;stroke-linecap:butt;stroke-linejoin:miter;stroke-miterlimit:4;stroke-dasharray:none;stroke-opacity:1" />
      <path
         id="path4158"
         d="M 313.83984 369.32617 C 227.43388 370.33633 143.78091 434.58405 126.17773 519.85742 C 122.57267 536.87711 121.58468 554.40846 123.01758 571.77734 C 126.94699 559.75867 132.04074 548.29458 142.47266 540.52539 C 152.99333 532.82692 170.77332 531.73624 178.68555 543.67383 C 179.38582 544.73914 180.02097 545.8306 180.61914 546.93555 C 185.98126 494.4737 222.44641 444.89731 273.74805 429.5 C 289.22375 424.50754 305.45257 421.73519 321.72656 421.68945 C 389.26692 420.81119 451.36316 477.66697 458.48242 544.29102 C 459.06361 543.49541 459.66828 542.7089 460.32422 541.94141 C 473.63925 528.29487 497.80728 527.24435 512.31055 539.48828 C 513.84335 541.04827 515.15096 542.71022 516.27148 544.45312 C 516.23232 544.04161 516.19867 543.6302 516.15625 543.21875 C 513.23173 507.28303 498.98979 472.74247 476.85352 444.37695 A 44.821705 59 43.139454 0 1 439.70508 435.83594 A 44.821705 59 43.139454 0 1 428.55469 400.61328 C 421.07687 395.9273 413.25219 391.78229 405.12305 388.26172 C 377.949 375.56475 348.01769 369.08036 317.95703 369.32617 C 316.58437 369.31017 315.21137 369.31014 313.83984 369.32617 z "
         style="opacity:0.286;fill:#f9f9f9;fill-rule:evenodd;stroke:none;stroke-width:1.40100002;stroke-linecap:butt;stroke-linejoin:miter;stroke-miterlimit:4;stroke-dasharray:none;stroke-opacity:1" />
      <rect
         transform="matrix(0.75747035,-0.65286957,0.65286957,0.75747035,0,0)"
         rx="0"
         ry="5.5"
         y="451.68436"
         x="-255.26907"
         height="11"
         width="34"
         id="rect4224"
         style="opacity:1;fill:#c87137;fill-opacity:1;stroke:none;stroke-width:25;stroke-linecap:round;stroke-linejoin:round;stroke-miterlimit:4;stroke-dasharray:none;stroke-opacity:1" />
      <rect
         transform="matrix(0.77601695,0.63071206,-0.63071206,0.77601695,0,0)"
         style="opacity:1;fill:#800080;fill-opacity:1;stroke:none;stroke-width:25;stroke-linecap:round;stroke-linejoin:round;stroke-miterlimit:4;stroke-dasharray:none;stroke-opacity:1"
         id="rect4226"
         width="34"
         height="11"
         x="388.26807"
         y="185.54579"
         ry="5.5"
         rx="0" />
      <rect
         inkscape:transform-center-y="92.333853"
         inkscape:transform-center-x="186.8247"
         transform="matrix(0.61980786,0.7847536,-0.7847536,0.61980786,0,0)"
         rx="0"
         ry="5.5"
         y="-6.2422061"
         x="559.86157"
         height="11"
         width="39"
         id="rect4228"
         style="opacity:1;fill:#00ff00;fill-opacity:1;stroke:none;stroke-width:25;stroke-linecap:round;stroke-linejoin:round;stroke-miterlimit:4;stroke-dasharray:none;stroke-opacity:1" />
      <rect
         style="opacity:1;fill:#ff00ff;fill-opacity:1;stroke:none;stroke-width:25;stroke-linecap:round;stroke-linejoin:round;stroke-miterlimit:4;stroke-dasharray:none;stroke-opacity:1"
         id="rect4230"
         width="39"
         height="11"
         x="-209.07774"
         y="-635.68329"
         ry="5.5"
         rx="0"
         transform="matrix(-0.91756643,0.3975825,-0.3975825,-0.91756643,0,0)" />
      <rect
         transform="matrix(0.83033813,0.55725989,-0.55725989,0.83033813,0,0)"
         rx="0"
         ry="5.5"
         y="143.67192"
         x="407.5881"
         height="11"
         width="39"
         id="rect4232"
         style="opacity:1;fill:#0000ff;fill-opacity:1;stroke:none;stroke-width:25;stroke-linecap:round;stroke-linejoin:round;stroke-miterlimit:4;stroke-dasharray:none;stroke-opacity:1" />
      <rect
         style="opacity:1;fill:#ff5555;fill-opacity:1;stroke:none;stroke-width:25;stroke-linecap:round;stroke-linejoin:round;stroke-miterlimit:4;stroke-dasharray:none;stroke-opacity:1"
         id="rect4234"
         width="39"
         height="11"
         x="-206.07866"
         y="538.38318"
         ry="5.5"
         rx="0"
         transform="matrix(0.76385091,-0.64539274,0.64539274,0.76385091,0,0)" />
      <rect
         inkscape:transform-center-y="-14.064106"
         inkscape:transform-center-x="-85.999987"
         transform="matrix(0.63116299,-0.77565023,0.75242675,0.65867594,0,0)"
         rx="0"
         ry="5.9180384"
         y="490.09756"
         x="-172.95232"
         height="11.836077"
         width="36.268627"
         id="rect4236"
         style="opacity:1;fill:#ffdd55;fill-opacity:1;stroke:none;stroke-width:25;stroke-linecap:round;stroke-linejoin:round;stroke-miterlimit:4;stroke-dasharray:none;stroke-opacity:1" />
      <rect
         inkscape:transform-center-y="-39"
         inkscape:transform-center-x="77"
         style="opacity:1;fill:#ffaaaa;fill-opacity:1;stroke:none;stroke-width:25;stroke-linecap:round;stroke-linejoin:round;stroke-miterlimit:4;stroke-dasharray:none;stroke-opacity:1"
         id="rect4238"
         width="39"
         height="11"
         x="627.47827"
         y="384.52432"
         ry="5.5"
         rx="0"
         transform="matrix(0.97033876,0.24174925,-0.24174925,0.97033876,0,0)" />
      <rect
         inkscape:transform-center-y="12.961024"
         inkscape:transform-center-x="-44.474863"
         transform="matrix(-0.7678287,0.6406552,-0.6406552,-0.7678287,0,0)"
         rx="0"
         ry="5.5"
         y="-582.57227"
         x="-74.55204"
         height="11"
         width="39"
         id="rect4240"
         style="opacity:1;fill:#ffffff;fill-opacity:1;stroke:none;stroke-width:25;stroke-linecap:round;stroke-linejoin:round;stroke-miterlimit:4;stroke-dasharray:none;stroke-opacity:1" />
      <rect
         style="opacity:1;fill:#008000;fill-opacity:1;stroke:none;stroke-width:25;stroke-linecap:round;stroke-linejoin:round;stroke-miterlimit:4;stroke-dasharray:none;stroke-opacity:1"
         id="rect4242"
         width="34"
         height="11"
         x="8.1065454"
         y="490.29425"
         ry="5.5"
         rx="0"
         transform="matrix(0.94420478,-0.32935897,0.32935897,0.94420478,0,0)" />
      <rect
         inkscape:transform-center-y="81.651413"
         inkscape:transform-center-x="162.72384"
         transform="matrix(0.95081579,-0.3097569,0.3097569,0.95081579,0,0)"
         rx="0"
         ry="5.5"
         y="458.67645"
         x="214.90013"
         height="11"
         width="34"
         id="rect4244"
         style="opacity:1;fill:#ff0000;fill-opacity:1;stroke:none;stroke-width:25;stroke-linecap:round;stroke-linejoin:round;stroke-miterlimit:4;stroke-dasharray:none;stroke-opacity:1" />
      <rect
         transform="matrix(0.97211556,0.23450231,-0.23450231,0.97211556,0,0)"
         rx="0"
         ry="5.5"
         y="338.40771"
         x="578.01978"
         height="11"
         width="39"
         id="rect4246"
         style="opacity:1;fill:#00ffff;fill-opacity:1;stroke:none;stroke-width:25;stroke-linecap:round;stroke-linejoin:round;stroke-miterlimit:4;stroke-dasharray:none;stroke-opacity:1"
         inkscape:transform-center-x="77.288883"
         inkscape:transform-center-y="-38.424403" />
    </g>
  </g>
</svg>
